<svg xmlns="http://www.w3.org/2000/svg" width="18" height="23" viewBox="0 0 18 23" fill="none">
  <path d="M4.60007 1.70914C4.70007 1.80914 4.90007 1.90914 5.00007 1.90914C5.10007 1.90914 5.20007 1.90914 5.30007 1.80914C5.60007 1.60914 5.60007 1.30914 5.40007 1.10914L4.80007 0.209142C4.70007 0.00914242 4.40007 0.00914246 4.10007 0.109142C3.90007 0.309143 3.90007 0.609143 4.00007 0.809143L4.60007 1.70914Z" fill="black"/>
  <path d="M12.3001 1.90902C12.5001 1.90902 12.6001 1.80902 12.7001 1.70902L13.3001 0.809017C13.5001 0.609017 13.4001 0.309017 13.2001 0.109017C13.0001 -0.090983 12.7001 0.00901698 12.5001 0.209017L11.9001 1.10902C11.7001 1.30902 11.8001 1.60902 12.0001 1.80902C12.1001 1.80902 12.2001 1.90902 12.3001 1.90902Z" fill="black"/>
  <path d="M0 9.60898V15.309C0 15.809 0.4 16.209 0.9 16.209C1.4 16.209 1.8 15.809 1.8 15.309V9.60898V8.70898H1C0.5 8.70898 0 9.10898 0 9.60898Z" fill="black"/>
  <path d="M5.00006 21.509C5.00006 22.109 5.50006 22.609 6.10006 22.609C6.70006 22.609 7.20006 22.109 7.20006 21.509V19.509H5.00006V21.509Z" fill="black"/>
  <path d="M13.1998 7.70889H14.4998C14.1998 4.80889 11.7998 2.60889 8.89984 2.60889H8.49984C5.59984 2.60889 3.19984 4.90889 2.89984 7.70889H4.19984H13.1998ZM11.1998 5.20889C11.3998 5.00889 11.6998 5.00889 11.8998 5.20889C11.9998 5.30889 12.0998 5.40889 12.0998 5.60889C12.0998 5.70889 11.9998 5.90889 11.9998 6.00889C11.8998 6.10889 11.7998 6.10889 11.5998 6.10889C11.4998 6.10889 11.2998 6.10889 11.1998 6.00889C11.0998 5.90889 11.0998 5.80889 11.0998 5.60889C10.9998 5.40889 11.0998 5.30889 11.1998 5.20889ZM5.49984 5.20889C5.69984 5.00889 5.99984 5.00889 6.19984 5.20889C6.29984 5.30889 6.39984 5.40889 6.39984 5.50889C6.39984 5.60889 6.29984 5.80889 6.19984 5.90889C6.09984 6.00889 5.99984 6.00889 5.89984 6.00889C5.79984 6.00889 5.59984 6.00889 5.49984 5.90889C5.39984 5.80889 5.39984 5.70889 5.39984 5.50889C5.39984 5.40889 5.39984 5.30889 5.49984 5.20889Z" fill="black"/>
  <path d="M16.4001 8.70898H15.5001V9.60898C15.5001 9.60898 15.5001 9.60898 15.5001 9.70898V15.309C15.5001 15.809 15.9001 16.209 16.4001 16.209C16.9001 16.209 17.3001 15.809 17.3001 15.309V9.60898C17.4001 9.10898 16.9001 8.70898 16.4001 8.70898Z" fill="black"/>
  <path d="M10.1999 21.509C10.1999 22.109 10.6999 22.609 11.2999 22.609C11.8999 22.609 12.3999 22.109 12.3999 21.509V19.509H10.1999V21.509Z" fill="black"/>
  <path d="M4.19984 8.70898H2.89984V9.60898V15.309V18.409H4.49984H7.69984H9.69984H12.8998H14.4998V8.70898H13.1998H4.19984Z" fill="black"/>
</svg>