<svg xmlns="http://www.w3.org/2000/svg" width="18" height="22" viewBox="0 0 18 22" fill="none">
  <path d="M14.8312 11.6944C14.8529 9.99683 15.7578 8.39057 17.1932 7.5014C16.2876 6.1984 14.771 5.37225 13.1929 5.32256C11.5098 5.14453 9.87817 6.33725 9.02041 6.33725C8.14621 6.33725 6.82569 5.34023 5.40364 5.36972C3.5502 5.43001 1.82225 6.49176 0.920486 8.12438C-1.01793 11.5057 0.42796 16.4753 2.28481 19.2085C3.21383 20.547 4.29961 22.042 5.72036 21.9889C7.11054 21.9309 7.62983 21.0957 9.30797 21.0957C10.9705 21.0957 11.4576 21.9889 12.9072 21.9552C14.3989 21.9309 15.3389 20.6109 16.2353 19.2598C16.9027 18.3061 17.4164 17.2522 17.7572 16.1369C16.0041 15.3898 14.8333 13.6122 14.8312 11.6944Z" fill="black"/>
  <path d="M12.0933 3.52502C12.9067 2.54123 13.3074 1.27668 13.2104 0C11.9677 0.131502 10.8198 0.729896 9.99543 1.67599C9.18929 2.6003 8.76983 3.84251 8.84911 5.07038C10.0923 5.08331 11.3143 4.50113 12.0933 3.52502Z" fill="black"/>
</svg>