<svg xmlns="http://www.w3.org/2000/svg" width="24" height="22" viewBox="0 0 24 22" fill="none">
  <path d="M23.7858 5.31706C23.6754 5.15755 23.528 5.02718 23.3562 4.9371C23.1844 4.84703 22.9934 4.79994 22.7994 4.79988H6.39943L5.01467 1.47597C4.8331 1.03824 4.52564 0.664294 4.13128 0.401528C3.73692 0.138762 3.27341 -0.000985222 2.79953 5.22855e-06H0V2.39994H2.79953L8.49218 16.0616C8.58336 16.2802 8.73718 16.4669 8.93427 16.5982C9.13136 16.7295 9.36291 16.7996 9.59975 16.7996H19.1995C19.6999 16.7996 20.1475 16.4888 20.3239 16.022L23.9238 6.42223C23.9918 6.24058 24.0148 6.04515 23.9908 5.85267C23.9667 5.66019 23.8964 5.47641 23.7858 5.31706ZM18.3679 14.3996H10.4001L7.4002 7.19981H21.0678L18.3679 14.3996Z" fill="black"/>
  <path d="M10.1995 21.5994C11.1936 21.5994 11.9994 20.7935 11.9994 19.7995C11.9994 18.8054 11.1936 17.9995 10.1995 17.9995C9.2054 17.9995 8.39953 18.8054 8.39953 19.7995C8.39953 20.7935 9.2054 21.5994 10.1995 21.5994Z" fill="black"/>
  <path d="M18.5996 21.5994C19.5937 21.5994 20.3995 20.7935 20.3995 19.7995C20.3995 18.8054 19.5937 17.9995 18.5996 17.9995C17.6055 17.9995 16.7996 18.8054 16.7996 19.7995C16.7996 20.7935 17.6055 21.5994 18.5996 21.5994Z" fill="black"/>
</svg>