<svg xmlns="http://www.w3.org/2000/svg" width="34" height="34" viewBox="0 0 34 34" fill="none">
  <mask id="mask0_2036_4920" style="mask-type:alpha" maskUnits="userSpaceOnUse" x="0" y="0" width="34" height="34">
    <path fill-rule="evenodd" clip-rule="evenodd" d="M16.6667 33.5C25.7794 33.5 33.1667 26.1127 33.1667 17C33.1667 7.8873 25.7794 0.5 16.6667 0.5C7.55405 0.5 0.166748 7.8873 0.166748 17C0.166748 26.1127 7.55405 33.5 16.6667 33.5ZM11.2667 9.5C9.77565 9.5 8.56679 10.7088 8.56679 12.2C8.56679 13.6912 9.77565 14.9 11.2667 14.9C12.7579 14.9 13.9667 13.6912 13.9667 12.2C13.9667 10.7088 12.7579 9.5 11.2667 9.5ZM19.5168 21.8C19.5168 20.3088 20.7257 19.1 22.2168 19.1C23.708 19.1 24.9168 20.3088 24.9168 21.8C24.9168 23.2912 23.708 24.5 22.2168 24.5C20.7257 24.5 19.5168 23.2912 19.5168 21.8ZM11.9394 18.9673C10.4164 20.4903 10.4164 22.9597 11.9394 24.4827L21.3793 15.0428C22.9024 13.5198 22.9024 11.0505 21.3793 9.5274L11.9394 18.9673Z" fill="url(#paint0_linear_2036_4920)"/>
  </mask>
  <g mask="url(#mask0_2036_4920)">
    <path d="M34.6667 -1H-1.33325V35H34.6667V-1Z" fill="#F37021"/>
  </g>
  <defs>
    <linearGradient id="paint0_linear_2036_4920" x1="6.16675" y1="6.5" x2="27.1667" y2="27.5" gradientUnits="userSpaceOnUse">
      <stop stop-opacity="0.95"/>
      <stop offset="1" stop-opacity="0.65"/>
    </linearGradient>
  </defs>
</svg>