<svg xmlns="http://www.w3.org/2000/svg" width="17" height="20" viewBox="0 0 17 20" fill="none">
  <path d="M8.29564 0C3.71447 0 0 3.71447 0 8.29564C0 10.5722 0.918446 12.6335 2.40376 14.1326L2.40218 14.1342L8.26799 20L13.5673 14.7007C15.4141 13.179 16.5913 10.8748 16.5913 8.29564C16.5913 3.71447 12.8772 0 8.29564 0ZM12.3111 13.1762L12.2377 13.2367L12.1705 13.3038L8.26799 17.2067L4.1577 13.0964L3.80691 12.7425C2.62577 11.5503 1.97515 9.97097 1.97515 8.29564C1.97515 4.81068 4.81068 1.97515 8.29564 1.97515C11.7806 1.97515 14.6161 4.81068 14.6161 8.29564C14.6161 10.1906 13.7763 11.9694 12.3111 13.1762Z" fill="black"/>
  <path d="M8.2955 5.13539C6.55025 5.13539 5.13525 6.55039 5.13525 8.29563C5.13525 10.0409 6.55025 11.4559 8.2955 11.4559C10.0407 11.4559 11.4557 10.0409 11.4557 8.29563C11.4557 6.55039 10.0407 5.13539 8.2955 5.13539ZM8.2955 9.48072C7.64212 9.48072 7.11041 8.94901 7.11041 8.29563C7.11041 7.64225 7.64212 7.11054 8.2955 7.11054C8.94888 7.11054 9.48059 7.64225 9.48059 8.29563C9.48059 8.94901 8.94927 9.48072 8.2955 9.48072Z" fill="black"/>
</svg>