<svg xmlns="http://www.w3.org/2000/svg" width="92" height="20" viewBox="0 0 92 20" fill="none">
  <path d="M56.2646 0C48.531 0 42.2634 4.47159 42.2634 9.99389C42.2634 15.5162 48.531 19.9878 56.2646 19.9878C63.9983 19.9878 70.2659 15.5162 70.2659 9.99389C70.2659 4.48381 63.9983 0 56.2646 0ZM56.2646 15.3329C50.9256 15.3329 46.9305 12.5229 46.9305 10.0061C46.9305 7.48931 50.9256 4.67929 56.2646 4.67929C61.6037 4.67929 65.5988 7.48931 65.5988 10.0061C65.5988 12.5229 61.6159 15.3329 56.2646 15.3329Z" fill="#0075BF"/>
  <path d="M10.3394 0C4.81706 0 0.345469 4.47159 0.333252 9.99389C0.333252 15.5162 4.80485 19.9878 10.3271 20C15.8494 20 20.321 15.5284 20.3332 10.0061V9.99389C20.3332 4.47159 15.8494 0 10.3394 0ZM15.6662 9.99389C15.6662 12.9383 13.2838 15.3207 10.3394 15.3329C7.39495 15.3329 5.00032 12.9505 5.00032 10.0061C5.00032 7.0617 7.38273 4.66707 10.3271 4.66707C13.2716 4.65486 15.6662 7.03726 15.6662 9.99389Z" fill="#0075BF"/>
  <path d="M25.7212 0.452148C24.2795 0.452148 23.0455 1.77164 23.351 3.26217C23.5709 4.36174 24.5972 5.10701 25.7212 5.10701H32.2331L22.1048 18.4729C21.7749 18.9127 22.0804 19.5358 22.6301 19.5358H38.5251C39.6491 19.5358 40.6753 18.7906 40.8953 17.691C41.2007 16.1882 40.0522 14.881 38.6106 14.881H30.6815L40.7975 1.52729C41.1274 1.08746 40.822 0.452148 40.2599 0.452148H25.7212Z" fill="#0075BF"/>
  <path d="M91.9642 2.78556V18.876C91.9642 19.0226 91.9153 19.1692 91.8176 19.2914C91.5854 19.5846 91.1578 19.6335 90.8646 19.4013L78.2562 9.383V17.2144C78.2562 18.4972 77.2177 19.5479 75.9227 19.5479C74.6398 19.5479 73.5891 18.5094 73.5891 17.2144V1.12399C73.5891 0.965161 73.638 0.818551 73.7357 0.696377C73.9679 0.415375 74.3955 0.366504 74.6765 0.598636L87.2971 10.617V2.78556C87.2971 1.50273 88.3356 0.452027 89.6306 0.452027C90.9257 0.452027 91.9642 1.50273 91.9642 2.78556Z" fill="#0075BF"/>
</svg>