<svg xmlns="http://www.w3.org/2000/svg" width="20" height="19" viewBox="0 0 20 19" fill="none">
  <path fill-rule="evenodd" clip-rule="evenodd" d="M19.264 14.6221L18.1535 14.622C18.4055 15.0521 18.5521 15.5496 18.5521 16.0816C18.5521 17.6905 17.2311 19 15.6073 19C13.9836 19 12.6625 17.6905 12.6625 16.0816C12.6625 15.5496 12.8092 15.0521 13.0612 14.622H9.56469C9.81676 15.0521 9.96305 15.5496 9.96305 16.0816C9.96305 17.6905 8.64265 19 7.01895 19C5.39488 19 4.07373 17.6905 4.07373 16.0816C4.07373 15.5496 4.22041 15.0521 4.47211 14.622L3.34979 14.6221C2.94516 14.6221 2.61385 14.2936 2.61385 13.8923L2.60111 3.82493L0.215308 1.45921C-0.0717693 1.17555 -0.0717693 0.711171 0.215308 0.427505C0.50128 0.143839 0.969669 0.143839 1.25638 0.427505L3.88392 3.03235C3.89388 3.0422 3.89683 3.0557 3.90604 3.06592C3.93625 3.10243 3.96279 3.14187 3.98527 3.18421C4.07556 3.33645 4.10431 3.5073 4.07372 3.6767L4.08647 13.1625H19.264C19.6687 13.1625 20 13.4911 20 13.8923C20 14.2936 19.6687 14.6221 19.264 14.6221ZM7.01895 14.622C6.20673 14.622 5.54597 15.2765 5.54597 16.0816C5.54597 16.8862 6.20673 17.5408 7.01895 17.5408C7.83044 17.5408 8.49083 16.8862 8.49083 16.0816C8.49083 15.2765 7.83044 14.622 7.01895 14.622ZM14.1347 16.0816C14.1347 16.8862 14.7955 17.5408 15.6073 17.5408C16.4196 17.5408 17.0796 16.8862 17.0796 16.0816C17.0796 15.2765 16.4196 14.622 15.6073 14.622C14.7955 14.622 14.1347 15.2765 14.1347 16.0816ZM17.7915 11.7033H6.23347C5.82661 11.7033 5.4968 11.3766 5.4968 10.9735L5.49683 0.729426C5.49683 0.326746 5.82664 0 6.23349 0H11.313H12.7852L17.7915 0.0281101C18.1983 0.0281101 18.5277 0.354856 18.5277 0.757537V10.9735C18.5277 11.3766 18.1983 11.7033 17.7915 11.7033ZM17.0552 1.48733L12.7852 1.45921V3.6486C12.7852 4.05164 12.4557 4.37802 12.0493 4.37802C11.6424 4.37802 11.313 4.05164 11.313 3.6486V1.45921H6.96943L6.9694 10.2441H17.0552V1.48733Z" fill="#757575"/>
</svg>