<svg xmlns="http://www.w3.org/2000/svg" width="23" height="24" viewBox="0 0 23 24" fill="none">
  <path d="M16.6004 7.21612L3.68078 0.299397C3.00939 -0.060017 2.2814 -0.0783851 1.65131 0.151337L12.6582 11.1582L16.6004 7.21612Z" fill="black"/>
  <path d="M21.4182 9.79556L17.6967 7.80322L13.4999 12L17.6967 16.1968L21.4181 14.2044C23.1786 13.2619 23.1786 10.738 21.4182 9.79556Z" fill="black"/>
  <path d="M0.643444 0.827148C0.248697 1.261 -0.00012207 1.8402 -0.00012207 2.50383V21.4961C-0.00012207 22.1597 0.248697 22.7389 0.643396 23.1728L11.8163 11.9999L0.643444 0.827148Z" fill="black"/>
  <path d="M1.65131 23.8486C2.28135 24.0783 3.00939 24.0601 3.68078 23.7006L16.6004 16.7839L12.6583 12.8418L1.65131 23.8486Z" fill="black"/>
</svg>