<svg xmlns="http://www.w3.org/2000/svg" width="120" height="120" viewBox="0 0 120 120" fill="none">
  <path d="M33.0682 4.26123V1.44873C33.0682 0.648545 33.7169 -0.000133514 34.517 -0.000133514H35.8807C36.6809 -0.000133514 37.3295 0.648545 37.3295 1.44873V4.26123H33.0682Z" fill="black"/>
  <path d="M45.5966 4.26123H42.7841C41.9839 4.26123 41.3352 3.61255 41.3352 2.81237V1.44873C41.3352 0.648545 41.9839 -0.000133514 42.7841 -0.000133514H45.5966V4.26123Z" fill="black"/>
  <path d="M45.4688 4.26123V1.44873C45.4688 0.648545 46.1174 -0.000133514 46.9176 -0.000133514H48.2813C49.0814 -0.000133514 49.7301 0.648545 49.7301 1.44873V4.26123H45.4688Z" fill="black"/>
  <path d="M57.9971 4.26123H55.1846C54.3844 4.26123 53.7358 3.61255 53.7358 2.81237V1.44873C53.7358 0.648545 54.3844 -0.000133514 55.1846 -0.000133514H57.9971V4.26123Z" fill="black"/>
  <path d="M62.1307 0H57.8693V4.26136H62.1307V0Z" fill="black"/>
  <path d="M62.0028 4.26123V-0.000133514H64.8153C65.6155 -0.000133514 66.2642 0.648545 66.2642 1.44873V4.26123H62.0028Z" fill="black"/>
  <path d="M73.2316 4.1764V4.26163H74.5313V2.96191H74.4461C74.4461 3.63521 73.9006 4.1764 73.2316 4.1764Z" fill="black"/>
  <path d="M74.4034 4.26123V1.44873C74.4034 0.648545 75.0521 -0.000133514 75.8522 -0.000133514H77.2159C78.0161 -0.000133514 78.6647 0.648545 78.6647 1.44873V4.26123H74.4034Z" fill="black"/>
  <path d="M82.6704 1.21875V3.04688C82.6704 3.72017 83.2159 4.26136 83.8892 4.26136H85.7173C86.3948 4.26136 86.936 3.71591 86.936 3.04261V1.21875C86.9318 0.541193 86.3863 0 85.713 0H83.8892C83.2159 0 82.6704 0.545455 82.6704 1.21875Z" fill="black"/>
  <path d="M37.3295 4.13379H33.0682V8.39515H37.3295V4.13379Z" fill="black"/>
  <path d="M37.2017 8.39502V5.58252C37.2017 4.78233 37.8503 4.13366 38.6505 4.13366H40.0142C40.8143 4.13366 41.463 4.78233 41.463 5.58252V8.39502H37.2017Z" fill="black"/>
  <path d="M62.1307 4.13379H57.8693V8.39515H62.1307V4.13379Z" fill="black"/>
  <path d="M66.2642 4.13379H62.0028V8.39515H66.2642V4.13379Z" fill="black"/>
  <path d="M74.5312 8.39502H71.7187C70.9186 8.39502 70.2699 7.74634 70.2699 6.94616V5.58252C70.2699 4.78233 70.9186 4.13366 71.7187 4.13366H74.5312V8.39502Z" fill="black"/>
  <path d="M78.6647 4.13379H74.4034V8.39515H78.6647V4.13379Z" fill="black"/>
  <path d="M78.5369 8.39502V4.13366H81.3494C82.1496 4.13366 82.7983 4.78233 82.7983 5.58252V8.39502H78.5369Z" fill="black"/>
  <path d="M37.3295 8.26709V11.0796C37.3295 11.8798 36.6809 12.5285 35.8807 12.5285H34.517C33.7168 12.5285 33.0682 11.8798 33.0682 11.0796V8.26709H37.3295Z" fill="black"/>
  <path d="M40.1633 12.443V12.5282H41.463V11.2285H41.3778C41.3778 11.9018 40.8324 12.443 40.1633 12.443Z" fill="black"/>
  <path d="M41.3352 12.5283V9.71582C41.3352 8.91563 41.9839 8.26696 42.7841 8.26696H44.1477C44.9479 8.26696 45.5966 8.91563 45.5966 9.71582V12.5283H41.3352Z" fill="black"/>
  <path d="M53.8636 12.5283H49.6023V9.71582C49.6023 8.91563 50.251 8.26696 51.0511 8.26696H53.8636V12.5283Z" fill="black"/>
  <path d="M57.9972 8.26709H53.7358V12.5285H57.9972V8.26709Z" fill="black"/>
  <path d="M62.1307 8.26709H57.8693V12.5285H62.1307V8.26709Z" fill="black"/>
  <path d="M66.2642 8.26709H62.0028V12.5285H66.2642V8.26709Z" fill="black"/>
  <path d="M66.1364 12.5283V9.71582C66.1364 8.91563 66.785 8.26696 67.5852 8.26696H68.9489C69.749 8.26696 70.3977 8.91563 70.3977 9.71582V12.5283H66.1364Z" fill="black"/>
  <path d="M82.7983 8.26709H78.5369V12.5285H82.7983V8.26709Z" fill="black"/>
  <path d="M82.6705 12.5283V9.71582C82.6705 8.91563 83.3191 8.26696 84.1193 8.26696H85.483C86.2832 8.26696 86.9318 8.91563 86.9318 9.71582V12.5283H82.6705Z" fill="black"/>
  <path d="M41.4631 16.6616H38.6506C37.8504 16.6616 37.2017 16.0129 37.2017 15.2128V13.8491C37.2017 13.0489 37.8504 12.4003 38.6506 12.4003H41.4631V16.6616Z" fill="black"/>
  <path d="M41.3353 12.4009H45.5966V15.2134C45.5966 16.0136 44.948 16.6622 44.1478 16.6622H41.3353V12.4009Z" fill="black"/>
  <path d="M48.4304 16.5768V16.662H49.7301V15.3623H49.6448C49.6448 16.0356 49.0994 16.5768 48.4304 16.5768Z" fill="black"/>
  <path d="M53.8636 12.4009H49.6022V16.6622H53.8636V12.4009Z" fill="black"/>
  <path d="M57.9972 12.4009H53.7358V16.6622H57.9972V12.4009Z" fill="black"/>
  <path d="M62.1307 12.4009H57.8693V16.6622H62.1307V12.4009Z" fill="black"/>
  <path d="M62.0028 12.4009H66.2642V15.2134C66.2642 16.0136 65.6155 16.6622 64.8153 16.6622H62.0028V12.4009Z" fill="black"/>
  <path d="M70.2699 13.6196V15.4478C70.2699 16.121 70.8154 16.6622 71.4886 16.6622H73.3168C73.9943 16.6622 74.5355 16.1168 74.5355 15.4435V13.6196C74.5313 12.9421 73.9858 12.4009 73.3125 12.4009H71.4886C70.8154 12.4009 70.2699 12.9463 70.2699 13.6196Z" fill="black"/>
  <path d="M77.3651 16.5768V16.662H78.6648V15.3623H78.5795C78.5795 16.0356 78.0341 16.5768 77.3651 16.5768Z" fill="black"/>
  <path d="M82.7983 12.4009H78.5369V16.6622H82.7983V12.4009Z" fill="black"/>
  <path d="M49.7301 20.7954H46.9176C46.1174 20.7954 45.4687 20.1467 45.4687 19.3465V17.9829C45.4687 17.1827 46.1174 16.534 46.9176 16.534H49.7301V20.7954Z" fill="black"/>
  <path d="M53.8636 16.5342H49.6022V20.7955H53.8636V16.5342Z" fill="black"/>
  <path d="M57.9972 16.5342H53.7358V20.7955H57.9972V16.5342Z" fill="black"/>
  <path d="M62.1307 16.5342H57.8693V20.7955H62.1307V16.5342Z" fill="black"/>
  <path d="M64.9645 20.7101V20.7953H66.2642V19.4956H66.179C66.179 20.1689 65.6335 20.7101 64.9645 20.7101Z" fill="black"/>
  <path d="M66.1364 20.7954V17.9829C66.1364 17.1827 66.785 16.534 67.5852 16.534H68.9489C69.749 16.534 70.3977 17.1827 70.3977 17.9829V20.7954H66.1364Z" fill="black"/>
  <path d="M78.6647 20.7954H74.4034V17.9829C74.4034 17.1827 75.052 16.534 75.8522 16.534H78.6647V20.7954Z" fill="black"/>
  <path d="M82.7983 16.5342H78.5369V20.7955H82.7983V16.5342Z" fill="black"/>
  <path d="M82.6705 20.7954V17.9829C82.6705 17.1827 83.3191 16.534 84.1193 16.534H85.483C86.2832 16.534 86.9318 17.1827 86.9318 17.9829V20.7954H82.6705Z" fill="black"/>
  <path d="M37.3295 24.9287H33.0682V22.1162C33.0682 21.316 33.7168 20.6673 34.517 20.6673H37.3295V24.9287Z" fill="black"/>
  <path d="M37.2017 24.9287V22.1162C37.2017 21.316 37.8504 20.6673 38.6506 20.6673H40.0142C40.8144 20.6673 41.4631 21.316 41.4631 22.1162V24.9287H37.2017Z" fill="black"/>
  <path d="M53.8636 20.6675H49.6022V24.9288H53.8636V20.6675Z" fill="black"/>
  <path d="M62.1307 20.6675H57.8693V24.9288H62.1307V20.6675Z" fill="black"/>
  <path d="M66.2642 20.6675H62.0028V24.9288H66.2642V20.6675Z" fill="black"/>
  <path d="M70.3977 20.6675H66.1364V24.9288H70.3977V20.6675Z" fill="black"/>
  <path d="M78.6647 20.6675H74.4034V24.9288H78.6647V20.6675Z" fill="black"/>
  <path d="M37.3295 24.8013H33.0682V29.0626H37.3295V24.8013Z" fill="black"/>
  <path d="M41.3352 29.0625V26.25C41.3352 25.4498 41.9839 24.8011 42.7841 24.8011H44.1477C44.9479 24.8011 45.5966 25.4498 45.5966 26.25V29.0625H41.3352Z" fill="black"/>
  <path d="M53.8636 24.8013V27.6138C53.8636 28.414 53.215 29.0626 52.4148 29.0626H51.0511C50.251 29.0626 49.6023 28.414 49.6023 27.6138V24.8013H53.8636Z" fill="black"/>
  <path d="M62.1307 24.8013V27.6138C62.1307 28.414 61.482 29.0626 60.6818 29.0626H59.3182C58.518 29.0626 57.8693 28.414 57.8693 27.6138V24.8013H62.1307Z" fill="black"/>
  <path d="M70.3978 24.8013V27.6138C70.3978 28.414 69.7491 29.0626 68.9489 29.0626H67.5853C66.7851 29.0626 66.1364 28.414 66.1364 27.6138V24.8013H70.3978Z" fill="black"/>
  <path d="M78.6647 24.8013V27.6138C78.6647 28.414 78.0161 29.0626 77.2159 29.0626H75.8522C75.052 29.0626 74.4034 28.414 74.4034 27.6138V24.8013H78.6647Z" fill="black"/>
  <path d="M82.6705 29.0625V26.25C82.6705 25.4498 83.3191 24.8011 84.1193 24.8011H85.483C86.2832 24.8011 86.9318 25.4498 86.9318 26.25V29.0625H82.6705Z" fill="black"/>
  <path d="M37.3295 28.9346H33.0682V33.1959H37.3295V28.9346Z" fill="black"/>
  <path d="M40.1633 33.1105V33.1957H41.463V31.896H41.3778C41.3778 32.5693 40.8324 33.1105 40.1633 33.1105Z" fill="black"/>
  <path d="M45.5966 28.9346H41.3353V33.1959H45.5966V28.9346Z" fill="black"/>
  <path d="M53.7357 33.1963V30.3838C53.7357 29.5836 54.3843 28.9349 55.1845 28.9349H56.5482C57.3483 28.9349 57.997 29.5836 57.997 30.3838V33.1963H53.7357Z" fill="black"/>
  <path d="M62.0028 30.1533V31.9814C62.0028 32.6547 62.5483 33.1959 63.2216 33.1959H65.0497C65.7272 33.1959 66.2684 32.6505 66.2684 31.9772V30.1533C66.2642 29.4758 65.7187 28.9346 65.0454 28.9346H63.2216C62.5483 28.9346 62.0028 29.48 62.0028 30.1533Z" fill="black"/>
  <path d="M86.9318 28.9346V31.7471C86.9318 32.5473 86.2831 33.1959 85.483 33.1959H84.1193C83.3191 33.1959 82.6705 32.5473 82.6705 31.7471V28.9346H86.9318Z" fill="black"/>
  <path d="M12.5284 37.3296H9.71594C8.91576 37.3296 8.26708 36.6809 8.26708 35.8807V34.5171C8.26708 33.7169 8.91576 33.0682 9.71594 33.0682H12.5284V37.3296Z" fill="black"/>
  <path d="M16.6619 33.0679H12.4006V37.3292H16.6619V33.0679Z" fill="black"/>
  <path d="M16.5341 37.3296V33.0682H19.3466C20.1467 33.0682 20.7954 33.7169 20.7954 34.5171V37.3296H16.5341Z" fill="black"/>
  <path d="M24.8011 34.2866V36.1147C24.8011 36.788 25.3466 37.3292 26.0199 37.3292H27.848C28.5256 37.3292 29.0668 36.7838 29.0668 36.1105V34.2866C29.0625 33.6091 28.5171 33.0679 27.8438 33.0679H26.0199C25.3466 33.0679 24.8011 33.6133 24.8011 34.2866Z" fill="black"/>
  <path d="M37.3295 33.0679V37.3292H34.517C33.7168 37.3292 33.0682 36.6806 33.0682 35.8804V33.0679H37.3295Z" fill="black"/>
  <path d="M41.463 33.0679H37.2017V37.3292H41.463V33.0679Z" fill="black"/>
  <path d="M45.5966 33.0679H41.3353V37.3292H45.5966V33.0679Z" fill="black"/>
  <path d="M45.4688 37.3296V33.0682H48.2813C49.0814 33.0682 49.7301 33.7169 49.7301 34.5171V37.3296H45.4688Z" fill="black"/>
  <path d="M57.9971 33.0679V37.3292H55.1846C54.3844 37.3292 53.7358 36.6806 53.7358 35.8804V33.0679H57.9971Z" fill="black"/>
  <path d="M57.8693 37.3296V33.0682H60.6818C61.482 33.0682 62.1307 33.7169 62.1307 34.5171V37.3296H57.8693Z" fill="black"/>
  <path d="M66.1364 34.2866V36.1147C66.1364 36.788 66.6818 37.3292 67.3551 37.3292H69.1832C69.8608 37.3292 70.402 36.7838 70.402 36.1105V34.2866C70.3977 33.6091 69.8523 33.0679 69.179 33.0679H67.3551C66.6818 33.0679 66.1364 33.6133 66.1364 34.2866Z" fill="black"/>
  <path d="M78.6648 37.3296H75.8523C75.0521 37.3296 74.4034 36.6809 74.4034 35.8807V34.5171C74.4034 33.7169 75.0521 33.0682 75.8523 33.0682H78.6648V37.3296Z" fill="black"/>
  <path d="M78.5369 37.3296V34.5171C78.5369 33.7169 79.1856 33.0682 79.9858 33.0682H81.3494C82.1496 33.0682 82.7983 33.7169 82.7983 34.5171V37.3296H78.5369Z" fill="black"/>
  <path d="M91.0653 37.3296H88.2528C87.4526 37.3296 86.8039 36.6809 86.8039 35.8807V34.5171C86.8039 33.7169 87.4526 33.0682 88.2528 33.0682H91.0653V37.3296Z" fill="black"/>
  <path d="M95.1989 33.0679H90.9375V37.3292H95.1989V33.0679Z" fill="black"/>
  <path d="M95.071 37.3296V33.0682H97.8835C98.6837 33.0682 99.3323 33.7169 99.3323 34.5171V37.3296H95.071Z" fill="black"/>
  <path d="M111.733 37.3296H108.92C108.12 37.3296 107.472 36.6809 107.472 35.8807V34.5171C107.472 33.7169 108.12 33.0682 108.92 33.0682H111.733V37.3296Z" fill="black"/>
  <path d="M115.866 33.0679H111.605V37.3292H115.866V33.0679Z" fill="black"/>
  <path d="M115.739 37.3296V33.0682H118.551C119.351 33.0682 120 33.7169 120 34.5171V37.3296H115.739Z" fill="black"/>
  <path d="M20.7955 37.2017V40.0142C20.7955 40.8143 20.1468 41.463 19.3466 41.463H17.983C17.1828 41.463 16.5341 40.8143 16.5341 40.0142V37.2017H20.7955Z" fill="black"/>
  <path d="M45.5966 37.2017H41.3353V41.463H45.5966V37.2017Z" fill="black"/>
  <path d="M49.7301 37.2017H45.4688V41.463H49.7301V37.2017Z" fill="black"/>
  <path d="M62.1307 37.2017V41.463H59.3182C58.518 41.463 57.8693 40.8143 57.8693 40.0142V37.2017H62.1307Z" fill="black"/>
  <path d="M62.0028 41.4634V38.6509C62.0028 37.8507 62.6515 37.202 63.4517 37.202H64.8153C65.6155 37.202 66.2642 37.8507 66.2642 38.6509V41.4634H62.0028Z" fill="black"/>
  <path d="M95.1989 37.2017H90.9375V41.463H95.1989V37.2017Z" fill="black"/>
  <path d="M99.3323 37.2017H95.071V41.463H99.3323V37.2017Z" fill="black"/>
  <path d="M99.2044 41.4634V38.6509C99.2044 37.8507 99.8531 37.202 100.653 37.202H102.017C102.817 37.202 103.466 37.8507 103.466 38.6509V41.4634H99.2044Z" fill="black"/>
  <path d="M120 37.2017V40.0142C120 40.8143 119.351 41.463 118.551 41.463H117.188C116.387 41.463 115.739 40.8143 115.739 40.0142V37.2017H120Z" fill="black"/>
  <path d="M4.26141 45.5967H4.95911e-05V42.7842C4.95911e-05 41.984 0.648728 41.3353 1.44891 41.3353H4.26141L4.26141 45.5967Z" fill="black"/>
  <path d="M8.39485 41.335H4.13348V45.5963H8.39485V41.335Z" fill="black"/>
  <path d="M12.5284 41.335H8.26703V45.5963H12.5284V41.335Z" fill="black"/>
  <path d="M12.4006 45.5967V41.3353H15.2131C16.0133 41.3353 16.6619 41.984 16.6619 42.7842V45.5967H12.4006Z" fill="black"/>
  <path d="M24.929 45.5967H20.6677V42.7842C20.6677 41.984 21.3163 41.3353 22.1165 41.3353H24.929V45.5967Z" fill="black"/>
  <path d="M24.8011 45.5967V42.7842C24.8011 41.984 25.4498 41.3353 26.25 41.3353H27.6136C28.4138 41.3353 29.0625 41.984 29.0625 42.7842V45.5967H24.8011Z" fill="black"/>
  <path d="M37.3296 45.5967H34.5171C33.7169 45.5967 33.0682 44.948 33.0682 44.1478V42.7842C33.0682 41.984 33.7169 41.3353 34.5171 41.3353H37.3296V45.5967Z" fill="black"/>
  <path d="M41.463 41.335H37.2017V45.5963H41.463V41.335Z" fill="black"/>
  <path d="M45.5966 41.335H41.3353V45.5963H45.5966V41.335Z" fill="black"/>
  <path d="M49.7301 41.335H45.4688V45.5963H49.7301V41.335Z" fill="black"/>
  <path d="M70.3978 45.5967H67.5853C66.7851 45.5967 66.1364 44.948 66.1364 44.1478V42.7842C66.1364 41.984 66.7851 41.3353 67.5853 41.3353H70.3978V45.5967Z" fill="black"/>
  <path d="M70.2699 45.5967V41.3353H73.0824C73.8826 41.3353 74.5313 41.984 74.5313 42.7842V45.5967H70.2699Z" fill="black"/>
  <path d="M86.9318 45.5967H84.1193C83.3191 45.5967 82.6705 44.948 82.6705 44.1478V42.7842C82.6705 41.984 83.3191 41.3353 84.1193 41.3353H86.9318V45.5967Z" fill="black"/>
  <path d="M91.0654 41.335H86.804V45.5963H91.0654V41.335Z" fill="black"/>
  <path d="M95.1989 41.335H90.9375V45.5963H95.1989V41.335Z" fill="black"/>
  <path d="M107.471 42.5537V44.3818C107.471 45.0551 108.017 45.5963 108.69 45.5963H110.518C111.196 45.5963 111.737 45.0509 111.737 44.3776V42.5537C111.733 41.8762 111.187 41.335 110.514 41.335H108.69C108.017 41.335 107.471 41.8804 107.471 42.5537Z" fill="black"/>
  <path d="M4.26136 45.4688H0V49.7301H4.26136V45.4688Z" fill="black"/>
  <path d="M12.5284 45.4688V49.7301H9.71594C8.91576 49.7301 8.26708 49.0814 8.26708 48.2813V45.4688H12.5284Z" fill="black"/>
  <path d="M16.6619 45.4688H12.4006V49.7301H16.6619V45.4688Z" fill="black"/>
  <path d="M24.929 45.4688V48.2813C24.929 49.0814 24.2803 49.7301 23.4802 49.7301H22.1165C21.3163 49.7301 20.6677 49.0814 20.6677 48.2813V45.4688H24.929Z" fill="black"/>
  <path d="M41.4631 45.4688V48.2813C41.4631 49.0814 40.8144 49.7301 40.0142 49.7301H38.6506C37.8504 49.7301 37.2017 49.0814 37.2017 48.2813V45.4688H41.4631Z" fill="black"/>
  <path d="M49.7301 45.4688H45.4688V49.7301H49.7301V45.4688Z" fill="black"/>
  <path d="M74.5312 45.4688V48.2813C74.5312 49.0814 73.8826 49.7301 73.0824 49.7301H71.7187C70.9186 49.7301 70.2699 49.0814 70.2699 48.2813V45.4688H74.5312Z" fill="black"/>
  <path d="M91.0654 45.4688H86.804V49.7301H91.0654V45.4688Z" fill="black"/>
  <path d="M95.1989 45.4688H90.9375V49.7301H95.1989V45.4688Z" fill="black"/>
  <path d="M95.071 49.73V45.4686H97.8835C98.6837 45.4686 99.3323 46.1173 99.3323 46.9175V49.73H95.071Z" fill="black"/>
  <path d="M103.338 49.73V46.9175C103.338 46.1173 103.987 45.4686 104.787 45.4686H106.151C106.951 45.4686 107.599 46.1173 107.599 46.9175V49.73H103.338Z" fill="black"/>
  <path d="M110.433 49.6452V49.7304H111.733V48.4307H111.648C111.648 49.104 111.102 49.6452 110.433 49.6452Z" fill="black"/>
  <path d="M111.605 49.73V46.9175C111.605 46.1173 112.254 45.4686 113.054 45.4686H114.418C115.218 45.4686 115.866 46.1173 115.866 46.9175V49.73H111.605Z" fill="black"/>
  <path d="M4.26136 49.6025H0V53.8639H4.26136V49.6025Z" fill="black"/>
  <path d="M4.13348 53.8638V49.6024H6.94598C7.74617 49.6024 8.39485 50.2511 8.39485 51.0513V53.8638H4.13348Z" fill="black"/>
  <path d="M16.6619 49.6025H12.4006V53.8639H16.6619V49.6025Z" fill="black"/>
  <path d="M16.5341 53.8638V51.0513C16.5341 50.2511 17.1827 49.6024 17.9829 49.6024H19.3466C20.1467 49.6024 20.7954 50.2511 20.7954 51.0513V53.8638H16.5341Z" fill="black"/>
  <path d="M29.0625 53.8638H26.25C25.4498 53.8638 24.8011 53.2151 24.8011 52.4149V51.0513C24.8011 50.2511 25.4498 49.6024 26.25 49.6024H29.0625V53.8638Z" fill="black"/>
  <path d="M28.9347 53.8638V51.0513C28.9347 50.2511 29.5834 49.6024 30.3836 49.6024H31.7472C32.5474 49.6024 33.1961 50.2511 33.1961 51.0513V53.8638H28.9347Z" fill="black"/>
  <path d="M45.5966 53.8638H42.7841C41.9839 53.8638 41.3352 53.2151 41.3352 52.4149V51.0513C41.3352 50.2511 41.9839 49.6024 42.7841 49.6024H45.5966V53.8638Z" fill="black"/>
  <path d="M49.7301 49.6025H45.4688V53.8639H49.7301V49.6025Z" fill="black"/>
  <path d="M53.8636 49.6025H49.6022V53.8639H53.8636V49.6025Z" fill="black"/>
  <path d="M53.7357 53.8638V51.0513C53.7357 50.2511 54.3843 49.6024 55.1845 49.6024H56.5482C57.3483 49.6024 57.997 50.2511 57.997 51.0513V53.8638H53.7357Z" fill="black"/>
  <path d="M66.1364 50.8213V52.6494C66.1364 53.3227 66.6818 53.8639 67.3551 53.8639H69.1832C69.8608 53.8639 70.402 53.3184 70.402 52.6452V50.8213C70.3977 50.1437 69.8523 49.6025 69.179 49.6025H67.3551C66.6818 49.6025 66.1364 50.148 66.1364 50.8213Z" fill="black"/>
  <path d="M78.6647 53.8638H74.4034V51.0513C74.4034 50.2511 75.052 49.6024 75.8522 49.6024H78.6647V53.8638Z" fill="black"/>
  <path d="M78.5369 53.8638V49.6024H81.3494C82.1496 49.6024 82.7983 50.2511 82.7983 51.0513V53.8638H78.5369Z" fill="black"/>
  <path d="M85.6321 53.7785V53.8637H86.9319V52.564H86.8466C86.8466 53.2373 86.3012 53.7785 85.6321 53.7785Z" fill="black"/>
  <path d="M91.0654 49.6025H86.804V53.8639H91.0654V49.6025Z" fill="black"/>
  <path d="M99.3324 49.6025V52.415C99.3324 53.2152 98.6837 53.8639 97.8835 53.8639H96.5199C95.7197 53.8639 95.071 53.2152 95.071 52.415V49.6025H99.3324Z" fill="black"/>
  <path d="M102.166 53.7785V53.8637H103.466V52.564H103.381C103.381 53.2373 102.835 53.7785 102.166 53.7785Z" fill="black"/>
  <path d="M107.599 49.6025H103.338V53.8639H107.599V49.6025Z" fill="black"/>
  <path d="M111.733 49.6025H107.471V53.8639H111.733V49.6025Z" fill="black"/>
  <path d="M115.866 49.6025H111.605V53.8639H115.866V49.6025Z" fill="black"/>
  <path d="M115.739 53.8638V49.6024H118.551C119.351 49.6024 120 50.2511 120 51.0513V53.8638H115.739Z" fill="black"/>
  <path d="M4.26136 53.7358H0V57.9972H4.26136V53.7358Z" fill="black"/>
  <path d="M8.39485 53.7358H4.13348V57.9972H8.39485V53.7358Z" fill="black"/>
  <path d="M16.6619 53.7358V56.5483C16.6619 57.3485 16.0132 57.9972 15.2131 57.9972H13.8494C13.0492 57.9972 12.4006 57.3485 12.4006 56.5483V53.7358H16.6619Z" fill="black"/>
  <path d="M53.8636 53.7358V56.5483C53.8636 57.3485 53.215 57.9972 52.4148 57.9972H51.0511C50.251 57.9972 49.6023 57.3485 49.6023 56.5483V53.7358H53.8636Z" fill="black"/>
  <path d="M62.1307 57.9971H59.3182C58.518 57.9971 57.8693 57.3484 57.8693 56.5482V55.1846C57.8693 54.3844 58.518 53.7357 59.3182 53.7357H62.1307V57.9971Z" fill="black"/>
  <path d="M62.0028 57.9971V55.1846C62.0028 54.3844 62.6515 53.7357 63.4517 53.7357H64.8153C65.6155 53.7357 66.2642 54.3844 66.2642 55.1846V57.9971H62.0028Z" fill="black"/>
  <path d="M78.6647 53.7358V57.9972H75.8522C75.052 57.9972 74.4034 57.3485 74.4034 56.5483V53.7358H78.6647Z" fill="black"/>
  <path d="M82.7983 53.7358H78.5369V57.9972H82.7983V53.7358Z" fill="black"/>
  <path d="M86.9318 53.7358H82.6704V57.9972H86.9318V53.7358Z" fill="black"/>
  <path d="M91.0654 53.7358H86.804V57.9972H91.0654V53.7358Z" fill="black"/>
  <path d="M90.9375 57.9971V53.7357H93.75C94.5502 53.7357 95.1989 54.3844 95.1989 55.1846V57.9971H90.9375Z" fill="black"/>
  <path d="M103.466 57.9971H100.653C99.8532 57.9971 99.2045 57.3484 99.2045 56.5482V55.1846C99.2045 54.3844 99.8532 53.7357 100.653 53.7357H103.466V57.9971Z" fill="black"/>
  <path d="M103.338 53.7358H107.599V56.5483C107.599 57.3485 106.951 57.9972 106.151 57.9972H103.338V53.7358Z" fill="black"/>
  <path d="M120 53.7358V56.5483C120 57.3485 119.351 57.9972 118.551 57.9972H117.188C116.387 57.9972 115.739 57.3485 115.739 56.5483V53.7358H120Z" fill="black"/>
  <path d="M4.26135 57.8696V62.131H1.44885C0.648667 62.131 -1.14441e-05 61.4823 -1.14441e-05 60.6821V57.8696H4.26135Z" fill="black"/>
  <path d="M4.13348 57.8696H8.39485V60.6821C8.39485 61.4823 7.74617 62.131 6.94598 62.131H4.13348V57.8696Z" fill="black"/>
  <path d="M16.5341 59.0884V60.9165C16.5341 61.5898 17.0795 62.131 17.7528 62.131H19.5809C20.2585 62.131 20.7997 61.5855 20.7997 60.9122V59.0884C20.7954 58.4108 20.25 57.8696 19.5767 57.8696H17.7528C17.0795 57.8696 16.5341 58.4151 16.5341 59.0884Z" fill="black"/>
  <path d="M29.0625 62.1304H26.25C25.4498 62.1304 24.8011 61.4817 24.8011 60.6815V59.3179C24.8011 58.5177 25.4498 57.869 26.25 57.869H29.0625V62.1304Z" fill="black"/>
  <path d="M33.1961 57.8696H28.9347V62.131H33.1961V57.8696Z" fill="black"/>
  <path d="M33.0682 62.1304V59.3179C33.0682 58.5177 33.7169 57.869 34.517 57.869H35.8807C36.6809 57.869 37.3295 58.5177 37.3295 59.3179V62.1304H33.0682Z" fill="black"/>
  <path d="M45.4688 59.0884V60.9165C45.4688 61.5898 46.0142 62.131 46.6875 62.131H48.5156C49.1932 62.131 49.7344 61.5855 49.7344 60.9122V59.0884C49.7301 58.4108 49.1847 57.8696 48.5114 57.8696H46.6875C46.0142 57.8696 45.4688 58.4151 45.4688 59.0884Z" fill="black"/>
  <path d="M70.2699 59.0884V60.9165C70.2699 61.5898 70.8154 62.131 71.4886 62.131H73.3168C73.9943 62.131 74.5355 61.5855 74.5355 60.9122V59.0884C74.5313 58.4108 73.9858 57.8696 73.3125 57.8696H71.4886C70.8154 57.8696 70.2699 58.4151 70.2699 59.0884Z" fill="black"/>
  <path d="M86.9318 57.8696V62.131H84.1193C83.3191 62.131 82.6705 61.4823 82.6705 60.6821V57.8696H86.9318Z" fill="black"/>
  <path d="M91.0654 57.8696H86.804V62.131H91.0654V57.8696Z" fill="black"/>
  <path d="M95.1989 57.8696H90.9375V62.131H95.1989V57.8696Z" fill="black"/>
  <path d="M95.071 62.1304V59.3179C95.071 58.5177 95.7197 57.869 96.5198 57.869H97.8835C98.6837 57.869 99.3323 58.5177 99.3323 59.3179V62.1304H95.071Z" fill="black"/>
  <path d="M12.4006 66.2642V63.4517C12.4006 62.6515 13.0493 62.0028 13.8494 62.0028H15.2131C16.0133 62.0028 16.6619 62.6515 16.6619 63.4517V66.2642H12.4006Z" fill="black"/>
  <path d="M20.6676 63.2217V65.0498C20.6676 65.7231 21.2131 66.2643 21.8864 66.2643H23.7145C24.392 66.2643 24.9332 65.7188 24.9332 65.0455V63.2217C24.929 62.5441 24.3835 62.0029 23.7102 62.0029H21.8864C21.2131 62.0029 20.6676 62.5484 20.6676 63.2217Z" fill="black"/>
  <path d="M33.1961 62.0029H28.9347V66.2643H33.1961V62.0029Z" fill="black"/>
  <path d="M40.1633 66.1788V66.2641H41.463V64.9644H41.3778C41.3778 65.6377 40.8324 66.1788 40.1633 66.1788Z" fill="black"/>
  <path d="M41.3352 66.2642V63.4517C41.3352 62.6515 41.9839 62.0028 42.7841 62.0028H44.1477C44.9479 62.0028 45.5966 62.6515 45.5966 63.4517V66.2642H41.3352Z" fill="black"/>
  <path d="M53.8636 66.2642H51.0511C50.251 66.2642 49.6023 65.6155 49.6023 64.8153V63.4517C49.6023 62.6515 50.251 62.0028 51.0511 62.0028H53.8636V66.2642Z" fill="black"/>
  <path d="M57.9972 62.0029H53.7358V66.2643H57.9972V62.0029Z" fill="black"/>
  <path d="M62.1307 62.0029H57.8693V66.2643H62.1307V62.0029Z" fill="black"/>
  <path d="M66.2642 62.0029H62.0028V66.2643H66.2642V62.0029Z" fill="black"/>
  <path d="M66.1364 66.2642V63.4517C66.1364 62.6515 66.785 62.0028 67.5852 62.0028H68.9489C69.749 62.0028 70.3977 62.6515 70.3977 63.4517V66.2642H66.1364Z" fill="black"/>
  <path d="M78.6647 66.2642H75.8522C75.052 66.2642 74.4034 65.6155 74.4034 64.8153V63.4517C74.4034 62.6515 75.052 62.0028 75.8522 62.0028H78.6647V66.2642Z" fill="black"/>
  <path d="M78.5369 66.2642V63.4517C78.5369 62.6515 79.1856 62.0028 79.9858 62.0028H81.3494C82.1496 62.0028 82.7983 62.6515 82.7983 63.4517V66.2642H78.5369Z" fill="black"/>
  <path d="M91.0653 62.0029V66.2643H88.2528C87.4526 66.2643 86.8039 65.6156 86.8039 64.8154V62.0029H91.0653Z" fill="black"/>
  <path d="M90.9375 62.0029H95.1989V64.8154C95.1989 65.6156 94.5502 66.2643 93.75 66.2643H90.9375V62.0029Z" fill="black"/>
  <path d="M103.466 66.2642H99.2045V63.4517C99.2045 62.6515 99.8532 62.0028 100.653 62.0028H103.466V66.2642Z" fill="black"/>
  <path d="M103.338 66.2642V62.0028H106.151C106.951 62.0028 107.599 62.6515 107.599 63.4517V66.2642H103.338Z" fill="black"/>
  <path d="M115.867 66.2642H113.054C112.254 66.2642 111.605 65.6155 111.605 64.8153V63.4517C111.605 62.6515 112.254 62.0028 113.054 62.0028H115.867V66.2642Z" fill="black"/>
  <path d="M115.739 66.2642V62.0028H118.551C119.351 62.0028 120 62.6515 120 63.4517V66.2642H115.739Z" fill="black"/>
  <path d="M0 70.3975L0 67.585C0 66.7848 0.648678 66.1361 1.44886 66.1361H2.8125C3.61269 66.1361 4.26136 66.7848 4.26136 67.585V70.3975H0Z" fill="black"/>
  <path d="M16.6619 66.1362V68.9487C16.6619 69.7489 16.0132 70.3976 15.2131 70.3976H13.8494C13.0492 70.3976 12.4006 69.7489 12.4006 68.9487V66.1362H16.6619Z" fill="black"/>
  <path d="M29.0625 70.3975H26.25C25.4498 70.3975 24.8011 69.7488 24.8011 68.9486V67.585C24.8011 66.7848 25.4498 66.1361 26.25 66.1361H29.0625V70.3975Z" fill="black"/>
  <path d="M33.1961 66.1362H28.9347V70.3976H33.1961V66.1362Z" fill="black"/>
  <path d="M41.4631 70.3975H38.6506C37.8504 70.3975 37.2017 69.7488 37.2017 68.9486V67.585C37.2017 66.7848 37.8504 66.1361 38.6506 66.1361H41.4631V70.3975Z" fill="black"/>
  <path d="M45.5966 66.1362H41.3353V70.3976H45.5966V66.1362Z" fill="black"/>
  <path d="M45.4688 70.3975V66.1361H48.2813C49.0814 66.1361 49.7301 66.7848 49.7301 67.585V70.3975H45.4688Z" fill="black"/>
  <path d="M57.9971 66.1362V70.3976H55.1846C54.3844 70.3976 53.7358 69.7489 53.7358 68.9487V66.1362H57.9971Z" fill="black"/>
  <path d="M62.1307 66.1362H57.8693V70.3976H62.1307V66.1362Z" fill="black"/>
  <path d="M66.2642 66.1362H62.0028V70.3976H66.2642V66.1362Z" fill="black"/>
  <path d="M70.2699 70.3975V67.585C70.2699 66.7848 70.9186 66.1361 71.7188 66.1361H73.0824C73.8826 66.1361 74.5313 66.7848 74.5313 67.585V70.3975H70.2699Z" fill="black"/>
  <path d="M82.6705 70.3975V67.585C82.6705 66.7848 83.3191 66.1361 84.1193 66.1361H85.483C86.2832 66.1361 86.9318 66.7848 86.9318 67.585V70.3975H82.6705Z" fill="black"/>
  <path d="M98.0327 70.3126V70.3979H99.3324V69.0981H99.2472C99.2472 69.7714 98.7017 70.3126 98.0327 70.3126Z" fill="black"/>
  <path d="M103.466 66.1362H99.2046V70.3976H103.466V66.1362Z" fill="black"/>
  <path d="M107.599 66.1362H103.338V70.3976H107.599V66.1362Z" fill="black"/>
  <path d="M107.471 70.3975V67.585C107.471 66.7848 108.12 66.1361 108.92 66.1361H110.284C111.084 66.1361 111.733 66.7848 111.733 67.585V70.3975H107.471Z" fill="black"/>
  <path d="M120 66.1362H115.739V70.3976H120V66.1362Z" fill="black"/>
  <path d="M4.26136 70.27H0V74.5314H4.26136V70.27Z" fill="black"/>
  <path d="M4.13348 74.5312V71.7187C4.13348 70.9186 4.78216 70.2699 5.58235 70.2699H6.94598C7.74617 70.2699 8.39485 70.9186 8.39485 71.7187V74.5312H4.13348Z" fill="black"/>
  <path d="M19.4957 74.4459V74.5312H20.7954V73.2314H20.7102C20.7102 73.9047 20.1648 74.4459 19.4957 74.4459Z" fill="black"/>
  <path d="M20.6676 74.5312V71.7187C20.6676 70.9186 21.3163 70.2699 22.1165 70.2699H23.4801C24.2803 70.2699 24.929 70.9186 24.929 71.7187V74.5312H20.6676Z" fill="black"/>
  <path d="M27.7628 74.4459V74.5312H29.0625V73.2314H28.9773C28.9773 73.9047 28.4319 74.4459 27.7628 74.4459Z" fill="black"/>
  <path d="M33.1961 70.27H28.9347V74.5314H33.1961V70.27Z" fill="black"/>
  <path d="M45.5966 70.27H41.3353V74.5314H45.5966V70.27Z" fill="black"/>
  <path d="M49.7301 70.27H45.4688V74.5314H49.7301V70.27Z" fill="black"/>
  <path d="M49.6022 74.5312V70.2699H52.4147C53.2149 70.2699 53.8636 70.9186 53.8636 71.7187V74.5312H49.6022Z" fill="black"/>
  <path d="M66.2642 70.27V73.0825C66.2642 73.8827 65.6155 74.5314 64.8154 74.5314H63.4517C62.6515 74.5314 62.0029 73.8827 62.0029 73.0825V70.27H66.2642Z" fill="black"/>
  <path d="M74.5312 70.27V74.5314H71.7187C70.9186 74.5314 70.2699 73.8827 70.2699 73.0825V70.27H74.5312Z" fill="black"/>
  <path d="M74.4034 74.5312V70.2699H77.2159C78.0161 70.2699 78.6647 70.9186 78.6647 71.7187V74.5312H74.4034Z" fill="black"/>
  <path d="M86.9318 70.27V74.5314H84.1193C83.3191 74.5314 82.6705 73.8827 82.6705 73.0825V70.27H86.9318Z" fill="black"/>
  <path d="M86.804 74.5312V71.7187C86.804 70.9186 87.4526 70.2699 88.2528 70.2699H89.6165C90.4166 70.2699 91.0653 70.9186 91.0653 71.7187V74.5312H86.804Z" fill="black"/>
  <path d="M93.8991 74.4459V74.5312H95.1988V73.2314H95.1136C95.1136 73.9047 94.5681 74.4459 93.8991 74.4459Z" fill="black"/>
  <path d="M99.3324 74.5312H95.071V71.7187C95.071 70.9186 95.7197 70.2699 96.5199 70.2699H99.3324V74.5312Z" fill="black"/>
  <path d="M103.466 70.27H99.2046V74.5314H103.466V70.27Z" fill="black"/>
  <path d="M107.599 70.27H103.338V74.5314H107.599V70.27Z" fill="black"/>
  <path d="M115.867 74.5312H113.054C112.254 74.5312 111.605 73.8826 111.605 73.0824V71.7187C111.605 70.9186 112.254 70.2699 113.054 70.2699H115.867V74.5312Z" fill="black"/>
  <path d="M115.739 70.27H120V73.0825C120 73.8827 119.351 74.5314 118.551 74.5314H115.739V70.27Z" fill="black"/>
  <path d="M4.26136 74.4033H0V78.6647H4.26136V74.4033Z" fill="black"/>
  <path d="M8.26703 78.665V75.8525C8.26703 75.0524 8.91571 74.4037 9.71589 74.4037H11.0795C11.8797 74.4037 12.5284 75.0524 12.5284 75.8525V78.665H8.26703Z" fill="black"/>
  <path d="M20.7955 78.665H17.983C17.1828 78.665 16.5341 78.0164 16.5341 77.2162V75.8525C16.5341 75.0524 17.1828 74.4037 17.983 74.4037H20.7955V78.665Z" fill="black"/>
  <path d="M24.929 74.4033H20.6676V78.6647H24.929V74.4033Z" fill="black"/>
  <path d="M29.0625 74.4033H24.8011V78.6647H29.0625V74.4033Z" fill="black"/>
  <path d="M33.1961 74.4033H28.9347V78.6647H33.1961V74.4033Z" fill="black"/>
  <path d="M33.0682 78.665V74.4037H35.8807C36.6809 74.4037 37.3295 75.0524 37.3295 75.8525V78.665H33.0682Z" fill="black"/>
  <path d="M45.5966 74.4033H41.3353V78.6647H45.5966V74.4033Z" fill="black"/>
  <path d="M49.7301 74.4033H45.4688V78.6647H49.7301V74.4033Z" fill="black"/>
  <path d="M53.8636 74.4033H49.6022V78.6647H53.8636V74.4033Z" fill="black"/>
  <path d="M53.7357 78.665V74.4037H56.5482C57.3483 74.4037 57.997 75.0524 57.997 75.8525V78.665H53.7357Z" fill="black"/>
  <path d="M66.1364 75.6221V77.4502C66.1364 78.1235 66.6818 78.6647 67.3551 78.6647H69.1832C69.8608 78.6647 70.402 78.1192 70.402 77.4459V75.6221C70.3977 74.9445 69.8523 74.4033 69.179 74.4033H67.3551C66.6818 74.4033 66.1364 74.9488 66.1364 75.6221Z" fill="black"/>
  <path d="M78.6647 74.4033V77.2158C78.6647 78.016 78.0161 78.6647 77.2159 78.6647H75.8522C75.052 78.6647 74.4034 78.016 74.4034 77.2158V74.4033H78.6647Z" fill="black"/>
  <path d="M95.1989 78.665H90.9375V75.8525C90.9375 75.0524 91.5862 74.4037 92.3864 74.4037H95.1989V78.665Z" fill="black"/>
  <path d="M95.071 74.4033H99.3323V77.2158C99.3323 78.016 98.6837 78.6647 97.8835 78.6647H95.071V74.4033Z" fill="black"/>
  <path d="M107.599 74.4033V77.2158C107.599 78.016 106.951 78.6647 106.151 78.6647H104.787C103.987 78.6647 103.338 78.016 103.338 77.2158V74.4033H107.599Z" fill="black"/>
  <path d="M4.26136 78.5366H0V82.798H4.26136V78.5366Z" fill="black"/>
  <path d="M12.5284 78.5366V81.3491C12.5284 82.1493 11.8798 82.798 11.0796 82.798H9.71594C8.91576 82.798 8.26708 82.1493 8.26708 81.3491V78.5366H12.5284Z" fill="black"/>
  <path d="M37.3295 78.5366V81.3491C37.3295 82.1493 36.6809 82.798 35.8807 82.798H34.517C33.7168 82.798 33.0682 82.1493 33.0682 81.3491V78.5366H37.3295Z" fill="black"/>
  <path d="M45.5966 78.5366V81.3491C45.5966 82.1493 44.9479 82.798 44.1477 82.798H42.7841C41.9839 82.798 41.3352 82.1493 41.3352 81.3491V78.5366H45.5966Z" fill="black"/>
  <path d="M57.9971 78.5366V81.3491C57.9971 82.1493 57.3485 82.798 56.5483 82.798H55.1846C54.3844 82.798 53.7358 82.1493 53.7358 81.3491V78.5366H57.9971Z" fill="black"/>
  <path d="M62.0028 79.7554V81.5835C62.0028 82.2568 62.5483 82.798 63.2216 82.798H65.0497C65.7272 82.798 66.2684 82.2525 66.2684 81.5792V79.7554C66.2642 79.0778 65.7187 78.5366 65.0454 78.5366H63.2216C62.5483 78.5366 62.0028 79.0821 62.0028 79.7554Z" fill="black"/>
  <path d="M70.2699 79.7554V81.5835C70.2699 82.2568 70.8154 82.798 71.4886 82.798H73.3168C73.9943 82.798 74.5355 82.2525 74.5355 81.5792V79.7554C74.5313 79.0778 73.9858 78.5366 73.3125 78.5366H71.4886C70.8154 78.5366 70.2699 79.0821 70.2699 79.7554Z" fill="black"/>
  <path d="M82.6706 82.7983V79.9858C82.6706 79.1857 83.3192 78.537 84.1194 78.537H85.4831C86.2832 78.537 86.9319 79.1857 86.9319 79.9858V82.7983H82.6706Z" fill="black"/>
  <path d="M89.7656 82.713V82.7983H91.0653V81.4985H90.9801C90.9801 82.1718 90.4347 82.713 89.7656 82.713Z" fill="black"/>
  <path d="M95.1989 78.5366H90.9375V82.798H95.1989V78.5366Z" fill="black"/>
  <path d="M98.0327 82.713V82.7983H99.3324V81.4985H99.2472C99.2472 82.1718 98.7017 82.713 98.0327 82.713Z" fill="black"/>
  <path d="M99.2044 82.7983V79.9858C99.2044 79.1857 99.8531 78.537 100.653 78.537H102.017C102.817 78.537 103.466 79.1857 103.466 79.9858V82.7983H99.2044Z" fill="black"/>
  <path d="M115.867 82.7983H113.054C112.254 82.7983 111.605 82.1497 111.605 81.3495V79.9858C111.605 79.1857 112.254 78.537 113.054 78.537H115.867V82.7983Z" fill="black"/>
  <path d="M115.739 82.7983V79.9858C115.739 79.1857 116.387 78.537 117.188 78.537H118.551C119.351 78.537 120 79.1857 120 79.9858V82.7983H115.739Z" fill="black"/>
  <path d="M4.26135 82.6704V85.4829C4.26135 86.2831 3.61267 86.9318 2.81249 86.9318H1.44885C0.648667 86.9318 -1.14441e-05 86.2831 -1.14441e-05 85.4829V82.6704H4.26135Z" fill="black"/>
  <path d="M16.6619 86.9321H13.8494C13.0492 86.9321 12.4006 86.2835 12.4006 85.4833V84.1196C12.4006 83.3194 13.0492 82.6708 13.8494 82.6708H16.6619V86.9321Z" fill="black"/>
  <path d="M20.7954 82.6704H16.5341V86.9318H20.7954V82.6704Z" fill="black"/>
  <path d="M24.929 82.6704H20.6676V86.9318H24.929V82.6704Z" fill="black"/>
  <path d="M24.8011 86.9321V84.1196C24.8011 83.3194 25.4498 82.6708 26.25 82.6708H27.6136C28.4138 82.6708 29.0625 83.3194 29.0625 84.1196V86.9321H24.8011Z" fill="black"/>
  <path d="M37.2017 83.8892V85.7173C37.2017 86.3906 37.7471 86.9318 38.4204 86.9318H40.2485C40.9261 86.9318 41.4673 86.3863 41.4673 85.713V83.8892C41.463 83.2116 40.9176 82.6704 40.2443 82.6704H38.4204C37.7471 82.6704 37.2017 83.2159 37.2017 83.8892Z" fill="black"/>
  <path d="M56.6974 86.8463V86.9316H57.9972V85.6318H57.9119C57.9119 86.3051 57.3665 86.8463 56.6974 86.8463Z" fill="black"/>
  <path d="M57.8693 86.9321V84.1196C57.8693 83.3194 58.518 82.6708 59.3182 82.6708H60.6818C61.482 82.6708 62.1307 83.3194 62.1307 84.1196V86.9321H57.8693Z" fill="black"/>
  <path d="M74.4034 83.8892V85.7173C74.4034 86.3906 74.9488 86.9318 75.6221 86.9318H77.4503C78.1278 86.9318 78.669 86.3863 78.669 85.713V83.8892C78.6647 83.2116 78.1193 82.6704 77.446 82.6704H75.6221C74.9488 82.6704 74.4034 83.2159 74.4034 83.8892Z" fill="black"/>
  <path d="M86.9318 82.6704H82.6704V86.9318H86.9318V82.6704Z" fill="black"/>
  <path d="M91.0654 82.6704H86.804V86.9318H91.0654V82.6704Z" fill="black"/>
  <path d="M95.1989 82.6704H90.9375V86.9318H95.1989V82.6704Z" fill="black"/>
  <path d="M99.3323 82.6704H95.071V86.9318H99.3323V82.6704Z" fill="black"/>
  <path d="M103.466 82.6704H99.2046V86.9318H103.466V82.6704Z" fill="black"/>
  <path d="M107.471 83.8892V85.7173C107.471 86.3906 108.017 86.9318 108.69 86.9318H110.518C111.196 86.9318 111.737 86.3863 111.737 85.713V83.8892C111.733 83.2116 111.187 82.6704 110.514 82.6704H108.69C108.017 82.6704 107.471 83.2159 107.471 83.8892Z" fill="black"/>
  <path d="M33.0682 88.0225V89.8506C33.0682 90.5239 33.6136 91.0651 34.2869 91.0651H36.1151C36.7926 91.0651 37.3338 90.5196 37.3338 89.8463V88.0225C37.3295 87.3449 36.7841 86.8037 36.1108 86.8037H34.2869C33.6136 86.8037 33.0682 87.3492 33.0682 88.0225Z" fill="black"/>
  <path d="M41.3353 88.0225V89.8506C41.3353 90.5239 41.8807 91.0651 42.554 91.0651H44.3821C45.0597 91.0651 45.6009 90.5196 45.6009 89.8463V88.0225C45.5966 87.3449 45.0512 86.8037 44.3779 86.8037H42.554C41.8807 86.8037 41.3353 87.3492 41.3353 88.0225Z" fill="black"/>
  <path d="M53.8636 91.0654H51.0511C50.251 91.0654 49.6023 90.4168 49.6023 89.6166V88.2529C49.6023 87.4527 50.251 86.8041 51.0511 86.8041H53.8636V91.0654Z" fill="black"/>
  <path d="M57.9972 86.8037H53.7358V91.0651H57.9972V86.8037Z" fill="black"/>
  <path d="M62.1307 86.8037H57.8693V91.0651H62.1307V86.8037Z" fill="black"/>
  <path d="M81.4985 90.9801V91.0653H82.7983V89.7656H82.713C82.713 90.4389 82.1676 90.9801 81.4985 90.9801Z" fill="black"/>
  <path d="M86.9318 86.8037H82.6704V91.0651H86.9318V86.8037Z" fill="black"/>
  <path d="M103.466 86.8037H99.2046V91.0651H103.466V86.8037Z" fill="black"/>
  <path d="M103.338 91.0654V88.2529C103.338 87.4527 103.987 86.8041 104.787 86.8041H106.151C106.951 86.8041 107.599 87.4527 107.599 88.2529V91.0654H103.338Z" fill="black"/>
  <path d="M115.867 91.0654H111.605V88.2529C111.605 87.4527 112.254 86.8041 113.054 86.8041H115.867V91.0654Z" fill="black"/>
  <path d="M115.739 91.0654V88.2529C115.739 87.4527 116.387 86.8041 117.188 86.8041H118.551C119.351 86.8041 120 87.4527 120 88.2529V91.0654H115.739Z" fill="black"/>
  <path d="M45.4688 95.1987V92.3862C45.4688 91.586 46.1174 90.9374 46.9176 90.9374H48.2813C49.0814 90.9374 49.7301 91.586 49.7301 92.3862V95.1987H45.4688Z" fill="black"/>
  <path d="M62.1307 90.9375V93.75C62.1307 94.5502 61.482 95.1989 60.6818 95.1989H59.3182C58.518 95.1989 57.8693 94.5502 57.8693 93.75V90.9375H62.1307Z" fill="black"/>
  <path d="M70.2699 92.1563V93.9844C70.2699 94.6577 70.8154 95.1989 71.4886 95.1989H73.3168C73.9943 95.1989 74.5355 94.6534 74.5355 93.9801V92.1563C74.5313 91.4787 73.9858 90.9375 73.3125 90.9375H71.4886C70.8154 90.9375 70.2699 91.483 70.2699 92.1563Z" fill="black"/>
  <path d="M77.3651 95.1139V95.1991H78.6648V93.8994H78.5795C78.5795 94.5727 78.0341 95.1139 77.3651 95.1139Z" fill="black"/>
  <path d="M82.7983 95.1987H78.5369V92.3862C78.5369 91.586 79.1856 90.9374 79.9858 90.9374H82.7983V95.1987Z" fill="black"/>
  <path d="M86.9318 90.9375H82.6704V95.1989H86.9318V90.9375Z" fill="black"/>
  <path d="M90.9375 92.1563V93.9844C90.9375 94.6577 91.483 95.1989 92.1562 95.1989H93.9844C94.6619 95.1989 95.2031 94.6534 95.2031 93.9801V92.1563C95.1989 91.4787 94.6534 90.9375 93.9801 90.9375H92.1562C91.483 90.9375 90.9375 91.483 90.9375 92.1563Z" fill="black"/>
  <path d="M103.466 90.9375H99.2046V95.1989H103.466V90.9375Z" fill="black"/>
  <path d="M115.867 90.9375V93.75C115.867 94.5502 115.218 95.1989 114.418 95.1989H113.054C112.254 95.1989 111.605 94.5502 111.605 93.75V90.9375H115.867Z" fill="black"/>
  <path d="M49.7301 95.0713V99.3327H46.9176C46.1174 99.3327 45.4687 98.684 45.4687 97.8838V95.0713H49.7301Z" fill="black"/>
  <path d="M53.8636 95.0713H49.6022V99.3327H53.8636V95.0713Z" fill="black"/>
  <path d="M53.7357 99.3325V95.0712H56.5482C57.3483 95.0712 57.997 95.7198 57.997 96.52V99.3325H53.7357Z" fill="black"/>
  <path d="M73.2315 99.2472V99.3324H74.5312V98.0327H74.446C74.446 98.706 73.9005 99.2472 73.2315 99.2472Z" fill="black"/>
  <path d="M78.6647 99.3325H74.4034V96.52C74.4034 95.7198 75.052 95.0712 75.8522 95.0712H78.6647V99.3325Z" fill="black"/>
  <path d="M82.7983 95.0713H78.5369V99.3327H82.7983V95.0713Z" fill="black"/>
  <path d="M86.9318 95.0713H82.6704V99.3327H86.9318V95.0713Z" fill="black"/>
  <path d="M98.0327 99.2472V99.3324H99.3324V98.0327H99.2472C99.2472 98.706 98.7017 99.2472 98.0327 99.2472Z" fill="black"/>
  <path d="M103.466 95.0713H99.2046V99.3327H103.466V95.0713Z" fill="black"/>
  <path d="M103.338 99.3325V95.0712H106.151C106.951 95.0712 107.599 95.7198 107.599 96.52V99.3325H103.338Z" fill="black"/>
  <path d="M114.567 99.2472V99.3324H115.866V98.0327H115.781C115.781 98.706 115.236 99.2472 114.567 99.2472Z" fill="black"/>
  <path d="M115.739 99.3325V96.52C115.739 95.7198 116.387 95.0712 117.188 95.0712H118.551C119.351 95.0712 120 95.7198 120 96.52V99.3325H115.739Z" fill="black"/>
  <path d="M37.3295 103.466H33.0682V100.653C33.0682 99.8531 33.7168 99.2045 34.517 99.2045H37.3295V103.466Z" fill="black"/>
  <path d="M37.2017 103.466V100.653C37.2017 99.8531 37.8504 99.2045 38.6506 99.2045H40.0142C40.8144 99.2045 41.4631 99.8531 41.4631 100.653V103.466H37.2017Z" fill="black"/>
  <path d="M53.8636 99.2046H49.6022V103.466H53.8636V99.2046Z" fill="black"/>
  <path d="M53.7358 99.2046H57.9972V102.017C57.9972 102.817 57.3485 103.466 56.5483 103.466H53.7358V99.2046Z" fill="black"/>
  <path d="M60.8309 103.381V103.466H62.1306V102.167H62.0454C62.0454 102.84 61.5 103.381 60.8309 103.381Z" fill="black"/>
  <path d="M66.2642 103.466H62.0029V100.653C62.0029 99.8531 62.6515 99.2045 63.4517 99.2045H66.2642V103.466Z" fill="black"/>
  <path d="M70.3977 99.2046H66.1364V103.466H70.3977V99.2046Z" fill="black"/>
  <path d="M74.5313 99.2046H70.2699V103.466H74.5313V99.2046Z" fill="black"/>
  <path d="M74.4034 99.2046H78.6647V102.017C78.6647 102.817 78.0161 103.466 77.2159 103.466H74.4034V99.2046Z" fill="black"/>
  <path d="M86.9318 99.2046H82.6704V103.466H86.9318V99.2046Z" fill="black"/>
  <path d="M91.0654 99.2046H86.804V103.466H91.0654V99.2046Z" fill="black"/>
  <path d="M95.1989 99.2046H90.9375V103.466H95.1989V99.2046Z" fill="black"/>
  <path d="M99.3323 99.2046H95.071V103.466H99.3323V99.2046Z" fill="black"/>
  <path d="M103.466 99.2046H99.2046V103.466H103.466V99.2046Z" fill="black"/>
  <path d="M107.599 99.2046H103.338V103.466H107.599V99.2046Z" fill="black"/>
  <path d="M111.733 99.2046H107.471V103.466H111.733V99.2046Z" fill="black"/>
  <path d="M115.866 99.2046H111.605V103.466H115.866V99.2046Z" fill="black"/>
  <path d="M115.739 99.2046H120V102.017C120 102.817 119.351 103.466 118.551 103.466H115.739V99.2046Z" fill="black"/>
  <path d="M37.3295 103.338H33.0682V107.6H37.3295V103.338Z" fill="black"/>
  <path d="M45.5966 107.599H42.7841C41.9839 107.599 41.3352 106.95 41.3352 106.15V104.787C41.3352 103.986 41.9839 103.338 42.7841 103.338H45.5966V107.599Z" fill="black"/>
  <path d="M49.7301 103.338H45.4688V107.6H49.7301V103.338Z" fill="black"/>
  <path d="M49.6022 103.338H53.8636V106.151C53.8636 106.951 53.2149 107.6 52.4147 107.6H49.6022V103.338Z" fill="black"/>
  <path d="M62.1307 107.599H57.8693V104.787C57.8693 103.986 58.518 103.338 59.3182 103.338H62.1307V107.599Z" fill="black"/>
  <path d="M66.2642 103.338H62.0028V107.6H66.2642V103.338Z" fill="black"/>
  <path d="M70.3977 103.338H66.1364V107.6H70.3977V103.338Z" fill="black"/>
  <path d="M74.5313 103.338H70.2699V107.6H74.5313V103.338Z" fill="black"/>
  <path d="M82.7983 107.599H78.5369V104.787C78.5369 103.986 79.1856 103.338 79.9858 103.338H82.7983V107.599Z" fill="black"/>
  <path d="M86.9318 103.338H82.6704V107.6H86.9318V103.338Z" fill="black"/>
  <path d="M91.0654 103.338H86.804V107.6H91.0654V103.338Z" fill="black"/>
  <path d="M99.3323 103.338H95.071V107.6H99.3323V103.338Z" fill="black"/>
  <path d="M107.599 103.338H103.338V107.6H107.599V103.338Z" fill="black"/>
  <path d="M111.733 103.338H107.471V107.6H111.733V103.338Z" fill="black"/>
  <path d="M37.3295 107.472V110.284C37.3295 111.084 36.6809 111.733 35.8807 111.733H34.517C33.7168 111.733 33.0682 111.084 33.0682 110.284V107.472H37.3295Z" fill="black"/>
  <path d="M62.1307 107.472V110.284C62.1307 111.084 61.482 111.733 60.6818 111.733H59.3182C58.518 111.733 57.8693 111.084 57.8693 110.284V107.472H62.1307Z" fill="black"/>
  <path d="M74.5313 107.472H70.2699V111.733H74.5313V107.472Z" fill="black"/>
  <path d="M82.7983 107.472V111.733H79.9858C79.1856 111.733 78.5369 111.084 78.5369 110.284V107.472H82.7983Z" fill="black"/>
  <path d="M86.9318 107.472H82.6704V111.733H86.9318V107.472Z" fill="black"/>
  <path d="M91.0654 107.472H86.804V111.733H91.0654V107.472Z" fill="black"/>
  <path d="M95.1989 107.472H90.9375V111.733H95.1989V107.472Z" fill="black"/>
  <path d="M99.3323 107.472H95.071V111.733H99.3323V107.472Z" fill="black"/>
  <path d="M103.466 107.472H99.2046V111.733H103.466V107.472Z" fill="black"/>
  <path d="M107.599 107.472H103.338V111.733H107.599V107.472Z" fill="black"/>
  <path d="M111.733 107.472H107.471V111.733H111.733V107.472Z" fill="black"/>
  <path d="M111.605 111.733V107.472H114.418C115.218 107.472 115.866 108.12 115.866 108.92V111.733H111.605Z" fill="black"/>
  <path d="M45.5966 115.866H42.7841C41.9839 115.866 41.3352 115.218 41.3352 114.417V113.054C41.3352 112.254 41.9839 111.605 42.7841 111.605H45.5966V115.866Z" fill="black"/>
  <path d="M49.7301 111.605H45.4688V115.866H49.7301V111.605Z" fill="black"/>
  <path d="M53.8636 111.605H49.6022V115.866H53.8636V111.605Z" fill="black"/>
  <path d="M53.7358 115.866V111.605H56.5483C57.3485 111.605 57.9971 112.254 57.9971 113.054V115.866H53.7358Z" fill="black"/>
  <path d="M60.8309 115.781V115.867H62.1306V114.567H62.0454C62.0454 115.24 61.5 115.781 60.8309 115.781Z" fill="black"/>
  <path d="M66.2642 115.866H62.0029V113.054C62.0029 112.254 62.6515 111.605 63.4517 111.605H66.2642V115.866Z" fill="black"/>
  <path d="M70.3977 111.605H66.1364V115.866H70.3977V111.605Z" fill="black"/>
  <path d="M70.2699 111.605H74.5313V114.417C74.5313 115.218 73.8826 115.866 73.0824 115.866H70.2699V111.605Z" fill="black"/>
  <path d="M103.466 111.605H99.2046V115.866H103.466V111.605Z" fill="black"/>
  <path d="M115.867 111.605V114.417C115.867 115.218 115.218 115.866 114.418 115.866H113.054C112.254 115.866 111.605 115.218 111.605 114.417V111.605H115.867Z" fill="black"/>
  <path d="M53.8636 115.739V120H51.0511C50.251 120 49.6023 119.351 49.6023 118.551V115.739H53.8636Z" fill="black"/>
  <path d="M57.9972 115.739H53.7358V120H57.9972V115.739Z" fill="black"/>
  <path d="M62.1307 115.739H57.8693V120H62.1307V115.739Z" fill="black"/>
  <path d="M62.0028 115.739H66.2642V118.551C66.2642 119.351 65.6155 120 64.8153 120H62.0028V115.739Z" fill="black"/>
  <path d="M78.5369 116.958V118.786C78.5369 119.459 79.0824 120 79.7557 120H81.5838C82.2614 120 82.8026 119.455 82.8026 118.781V116.958C82.7983 116.28 82.2528 115.739 81.5795 115.739H79.7557C79.0824 115.739 78.5369 116.284 78.5369 116.958Z" fill="black"/>
  <path d="M86.804 116.958V118.786C86.804 119.459 87.3495 120 88.0228 120H89.8509C90.5284 120 91.0696 119.455 91.0696 118.781V116.958C91.0654 116.28 90.5199 115.739 89.8466 115.739H88.0228C87.3495 115.739 86.804 116.284 86.804 116.958Z" fill="black"/>
  <path d="M103.466 115.739V120H100.653C99.8532 120 99.2045 119.351 99.2045 118.551V115.739H103.466Z" fill="black"/>
  <path d="M107.599 115.739H103.338V120H107.599V115.739Z" fill="black"/>
  <path d="M107.471 120V117.187C107.471 116.387 108.12 115.739 108.92 115.739H110.284C111.084 115.739 111.733 116.387 111.733 117.187V120H107.471Z" fill="black"/>
  <path d="M25.5683 19.4885V10.3405C25.5683 6.28007 25.0159 5.28932 24.7783 5.05122C24.5402 4.81366 23.5495 4.26129 19.4885 4.26129H10.3411C6.28007 4.26129 5.28932 4.81366 5.05176 5.05122C4.81419 5.28932 4.26129 6.28007 4.26129 10.3405V19.4885C4.26129 23.5495 4.81419 24.5402 5.05176 24.7783C5.28932 25.0154 6.28007 25.5683 10.3411 25.5683H19.4885C23.5495 25.5683 24.5402 25.0154 24.7783 24.7783C25.0159 24.5402 25.5683 23.5495 25.5683 19.4885ZM19.4885 0C27.8411 0 29.8295 1.98842 29.8295 10.3405C29.8295 18.6932 29.8295 11.1363 29.8295 19.4885C29.8295 27.8411 27.8411 29.8295 19.4885 29.8295C11.1363 29.8295 18.6932 29.8295 10.3411 29.8295C1.98842 29.8295 0 27.8411 0 19.4885C0 11.1363 0 15.0051 0 10.3405C0 1.98842 1.98842 0 10.3411 0C18.6932 0 11.1363 0 19.4885 0ZM16.8749 8.52273C20.4547 8.52273 21.3068 9.37535 21.3068 12.9542C21.3068 16.534 21.3068 13.2955 21.3068 16.8749C21.3068 20.4542 20.4547 21.3068 16.8749 21.3068C13.2955 21.3068 16.534 21.3068 12.9547 21.3068C9.37535 21.3068 8.52273 20.4542 8.52273 16.8749C8.52273 13.2955 8.52273 14.9534 8.52273 12.9542C8.52273 9.37535 9.37535 8.52273 12.9547 8.52273C16.534 8.52273 13.2955 8.52273 16.8749 8.52273Z" fill="black"/>
  <path d="M115.568 19.4885V10.3405C115.568 6.28007 115.016 5.28932 114.778 5.05122C114.54 4.81366 113.549 4.26129 109.488 4.26129H100.341C96.2801 4.26129 95.2893 4.81366 95.0518 5.05122C94.8142 5.28932 94.2613 6.28007 94.2613 10.3405V19.4885C94.2613 23.5495 94.8142 24.5402 95.0518 24.7783C95.2893 25.0154 96.2801 25.5683 100.341 25.5683H109.488C113.549 25.5683 114.54 25.0154 114.778 24.7783C115.016 24.5402 115.568 23.5495 115.568 19.4885ZM109.488 0C117.841 0 119.83 1.98842 119.83 10.3405C119.83 18.6932 119.83 11.1363 119.83 19.4885C119.83 27.8411 117.841 29.8295 109.488 29.8295C101.136 29.8295 108.693 29.8295 100.341 29.8295C91.9884 29.8295 90 27.8411 90 19.4885C90 11.1363 90 15.0051 90 10.3405C90 1.98842 91.9884 0 100.341 0C108.693 0 101.136 0 109.488 0ZM106.875 8.52273C110.455 8.52273 111.307 9.37535 111.307 12.9542C111.307 16.534 111.307 13.2955 111.307 16.8749C111.307 20.4542 110.455 21.3068 106.875 21.3068C103.296 21.3068 106.534 21.3068 102.955 21.3068C99.3754 21.3068 98.5227 20.4542 98.5227 16.8749C98.5227 13.2955 98.5227 14.9534 98.5227 12.9542C98.5227 9.37535 99.3754 8.52273 102.955 8.52273C106.534 8.52273 103.296 8.52273 106.875 8.52273Z" fill="black"/>
  <path d="M25.5683 109.488V100.341C25.5683 96.2801 25.0159 95.2893 24.7783 95.0512C24.5402 94.8137 23.5495 94.2613 19.4885 94.2613H10.3411C6.28007 94.2613 5.28932 94.8137 5.05176 95.0512C4.81419 95.2893 4.26129 96.2801 4.26129 100.341V109.488C4.26129 113.549 4.81419 114.54 5.05176 114.778C5.28932 115.015 6.28007 115.568 10.3411 115.568H19.4885C23.5495 115.568 24.5402 115.015 24.7783 114.778C25.0159 114.54 25.5683 113.549 25.5683 109.488ZM19.4885 90C27.8411 90 29.8295 91.9884 29.8295 100.341C29.8295 108.693 29.8295 101.136 29.8295 109.488C29.8295 117.841 27.8411 119.83 19.4885 119.83C11.1363 119.83 18.6932 119.83 10.3411 119.83C1.98842 119.83 0 117.841 0 109.488C0 101.136 0 105.005 0 100.341C0 91.9884 1.98842 90 10.3411 90C18.6932 90 11.1363 90 19.4885 90ZM16.8749 98.5227C20.4547 98.5227 21.3068 99.3754 21.3068 102.954C21.3068 106.534 21.3068 103.296 21.3068 106.875C21.3068 110.454 20.4547 111.307 16.8749 111.307C13.2955 111.307 16.534 111.307 12.9547 111.307C9.37535 111.307 8.52273 110.454 8.52273 106.875C8.52273 103.296 8.52273 104.953 8.52273 102.954C8.52273 99.3754 9.37535 98.5227 12.9547 98.5227C16.534 98.5227 13.2955 98.5227 16.8749 98.5227Z" fill="black"/>
</svg>