<svg xmlns="http://www.w3.org/2000/svg" width="24" height="24" viewBox="0 0 24 24" fill="none">
  <path fill-rule="evenodd" clip-rule="evenodd" d="M8.03612 1.00548L7.65526 1.01923C5.21064 1.10998 3.86046 1.4441 2.89388 2.1976C2.19267 2.74347 1.71557 3.48185 1.43509 4.4581C1.18485 5.32297 1.05973 6.38722 1.00886 8.03996C0.992358 8.59546 1.00061 15.9792 1.01848 16.3133C1.06248 17.1383 1.08585 17.4601 1.12848 17.8698C1.30722 19.5501 1.71695 20.6198 2.48416 21.4063C3.40536 22.3509 4.66479 22.7758 6.97193 22.9188C7.99212 22.9821 9.09069 23.0013 12.0055 22.9999C15.007 22.9999 16.2252 22.9779 17.2 22.9092C19.3917 22.7511 20.5878 22.3344 21.4871 21.4146C22.3945 20.4837 22.7932 19.2269 22.9307 16.8661C22.9844 15.9476 22.9912 15.4416 22.9981 12.5541C23.005 9.34208 22.994 8.33971 22.9417 7.29884C22.8592 5.63509 22.6571 4.54747 22.2749 3.71285C22.0589 3.23176 21.75 2.79811 21.3658 2.43683C20.9817 2.07556 20.5299 1.79379 20.0365 1.60773C19.1153 1.24473 17.9892 1.0756 16.0561 1.0096C15.7852 0.999978 8.24923 0.995853 8.03612 1.00548ZM13.9524 5.03834C13.9896 5.04384 14.369 5.13459 14.7953 5.24322L16.991 5.78909C17.9672 6.03247 18.4388 6.15484 18.5035 6.18097C18.6824 6.25363 18.8435 6.36429 18.9755 6.50531C19.1074 6.64633 19.2072 6.81434 19.2679 6.99772C19.3435 7.22047 19.338 6.92897 19.3353 11.0402L19.3325 14.7554L19.3078 14.8462C19.2803 14.9466 19.2088 15.1074 19.1538 15.1872C19.0784 15.2878 18.9896 15.3775 18.8898 15.4539C18.7802 15.5265 18.6607 15.583 18.5351 15.6217C18.448 15.644 18.3579 15.6519 18.2683 15.6451H18.0855L17.288 15.4443C17.0015 15.3774 16.7172 15.3013 16.4356 15.2161C16.3966 15.1935 16.3606 15.1663 16.3283 15.1349C16.2591 15.0642 16.2177 14.971 16.2114 14.8723C16.2046 14.8187 16.1592 13.5482 16.1083 12.0481C16.0827 11.1091 16.0474 10.1704 16.0025 9.23209C15.9418 8.87864 15.7704 8.55362 15.513 8.30396C15.3445 8.13665 15.1419 8.00767 14.919 7.92584C14.853 7.90246 14.8448 7.90246 14.8173 7.91759C14.809 7.92226 14.8019 7.92857 14.7962 7.93614C14.7905 7.94372 14.7864 7.95238 14.7843 7.96159C14.7815 7.98634 14.8008 8.00971 14.9039 8.11284C15.1039 8.30331 15.2418 8.54958 15.2999 8.81959L15.3246 8.93234L15.3219 12.3753C15.3228 13.6234 15.3186 14.8714 15.3095 16.1194C15.2999 16.4577 15.2902 16.5154 15.2132 16.6763C15.1627 16.7921 15.0898 16.8967 14.9988 16.9843C14.8886 17.0961 14.7549 17.1819 14.6075 17.2356C14.4601 17.2894 14.3025 17.3097 14.1463 17.2951C13.5667 17.1716 12.9912 17.0295 12.4208 16.8688C12.3665 16.8404 12.3185 16.8012 12.2797 16.7537C12.241 16.7062 12.2122 16.6514 12.1953 16.5924C12.187 16.5649 12.1485 15.5062 12.0922 13.837C12.0427 12.3451 11.9959 11.0636 11.989 10.9907C11.9577 10.6484 11.8202 10.3244 11.5958 10.064C11.4237 9.85616 11.2032 9.69375 10.9537 9.59096C10.8341 9.54558 10.8052 9.54146 10.7764 9.57033C10.7434 9.60333 10.7489 9.62946 10.797 9.66246C10.8685 9.71196 11.0307 9.88796 11.094 9.98558C11.2066 10.1616 11.2776 10.361 11.3016 10.5686C11.3098 10.6415 11.3126 11.7511 11.3098 14.3567L11.3071 18.0417L11.2796 18.1448C11.2319 18.3309 11.1339 18.5003 10.9963 18.6343C10.8585 18.7715 10.6868 18.8697 10.4986 18.9189C10.3678 18.9478 10.2331 18.9552 10.0999 18.9409C8.58402 18.573 7.07065 18.1949 5.55987 17.8066C5.34957 17.725 5.16282 17.5925 5.01642 17.4209C4.87003 17.2493 4.76857 17.044 4.72117 16.8234C4.70192 16.7464 4.70054 16.5622 4.69779 13.0518C4.69504 10.5177 4.69779 9.33109 4.70467 9.26233C4.73367 9.01325 4.85128 8.7829 5.03602 8.61334C5.11655 8.53539 5.21008 8.4721 5.31239 8.42634C5.45051 8.35204 5.60694 8.31865 5.76336 8.33009H5.94623L7.30878 8.67109C8.05949 8.85946 8.67684 9.01209 8.68234 9.01209C8.68784 9.01209 8.69196 8.74671 8.69196 8.39746C8.69196 7.74434 8.69884 7.58346 8.73458 7.45421C8.79654 7.24178 8.92113 7.05298 9.09207 6.91247C9.21603 6.81719 9.35693 6.74627 9.50729 6.70347C9.63539 6.67502 9.7672 6.66713 9.89777 6.68009C9.94315 6.68697 10.5935 6.84509 11.3414 7.03071L12.7109 7.36896C12.7164 7.36896 12.7205 7.07059 12.7205 6.70484C12.7205 6.31022 12.7246 6.00497 12.7315 5.95272C12.7625 5.71655 12.8712 5.4974 13.0404 5.32984C13.2097 5.16229 13.43 5.05586 13.6665 5.02734C13.7619 5.01854 13.858 5.02224 13.9524 5.03834Z" fill="black"/>
</svg>