<svg xmlns="http://www.w3.org/2000/svg" width="28" height="33" viewBox="0 0 28 33" fill="none">
  <path fill-rule="evenodd" clip-rule="evenodd" d="M11.6515 18.1418L15.6921 20.8084V25.7339L11.6399 32.9999L11.6515 18.1418Z" fill="#62B22F"/>
  <path fill-rule="evenodd" clip-rule="evenodd" d="M8.29789 16.0459L12.3385 18.3864L0.356445 25.6524L4.26895 18.5378L8.29789 16.0459Z" fill="#974995"/>
  <path fill-rule="evenodd" clip-rule="evenodd" d="M27.1035 9.32706L19.4066 9.29213L15.692 7.05643L11.6631 0L27.1035 9.32706Z" fill="#EE7024"/>
  <path fill-rule="evenodd" clip-rule="evenodd" d="M11.6631 0L15.6921 7.05643L15.7037 16.7794L11.6282 15.5451L11.6631 0Z" fill="#FBB61B"/>
  <path fill-rule="evenodd" clip-rule="evenodd" d="M0.333252 7.10303L4.28069 14.2875L4.26904 18.5377L0.356541 25.6523L0.333252 7.10303Z" fill="#5A58A3"/>
  <path fill-rule="evenodd" clip-rule="evenodd" d="M0.333252 7.10303L27.0454 23.4516L19.3951 23.4982L4.28069 14.2875L0.333252 7.10303Z" fill="#2188CB"/>
  <path fill-rule="evenodd" clip-rule="evenodd" d="M19.4067 9.29224L27.1036 9.32717L15.7038 16.337L15.6921 11.5512L19.4067 9.29224Z" fill="#DA0954"/>
  <path fill-rule="evenodd" clip-rule="evenodd" d="M15.6921 25.7339L19.395 23.4982L27.0454 23.4517L11.6399 33L15.6921 25.7339Z" fill="#037F37"/>
</svg>