<svg xmlns="http://www.w3.org/2000/svg" width="63" height="64" viewBox="0 0 63 64" fill="none">
  <path d="M58.6083 49.1265C58.6083 50.5483 57.3949 51.693 55.8859 51.693H23.6727C22.1637 51.693 20.9499 50.5483 20.9499 49.1265V7.20096C20.9499 5.77911 22.1637 4.63446 23.6727 4.63446H51.1454L58.6083 12.1555V49.1265ZM53.8883 0H20.3455C18.5032 0 17.0217 1.35953 17.0217 3.04909V52.8456C17.0217 54.5337 18.5032 55.8942 20.3455 55.8942H59.6758C61.5181 55.8942 63 54.5337 63 52.8456V8.1108L53.8883 0Z" fill="#F37021"/>
  <path d="M3.30872 16.8991C1.8002 16.8991 0.586365 18.0442 0.586365 19.4656V61.3901C0.586365 62.8119 1.8002 63.9566 3.30872 63.9566H35.5224C37.0299 63.9566 38.2447 62.8119 38.2447 61.3901V24.4201L30.7818 16.8981H3.30872V16.8991Z" fill="#3F3F3F"/>
  <mask id="mask0_2002_1829" style="mask-type:luminance" maskUnits="userSpaceOnUse" x="0" y="16" width="38" height="48">
    <path d="M0 16.778H37.8483V64H0V16.778Z" fill="white"/>
  </mask>
  <g mask="url(#mask0_2002_1829)">
    <mask id="mask1_2002_1829" style="mask-type:luminance" maskUnits="userSpaceOnUse" x="0" y="16" width="38" height="48">
      <path d="M2.84564 16.8991C1.33712 16.8991 0.123291 18.0442 0.123291 19.4656V61.3901C0.123291 62.8119 1.33712 63.9566 2.84564 63.9566H35.0593C36.5678 63.9566 37.7817 62.8119 37.7817 61.3901V24.4201L30.3182 16.8981H2.84564V16.8991Z" fill="white"/>
    </mask>
    <g mask="url(#mask1_2002_1829)">
      <mask id="mask2_2002_1829" style="mask-type:luminance" maskUnits="userSpaceOnUse" x="0" y="16" width="38" height="48">
        <path d="M2.84564 16.8991C1.33712 16.8991 0.123291 18.0442 0.123291 19.4656V61.3901C0.123291 62.8119 1.33712 63.9566 2.84564 63.9566H35.0593C36.5678 63.9566 37.7817 62.8119 37.7817 61.3901V24.4201L30.3182 16.8981H2.84564V16.8991Z" fill="white"/>
      </mask>
      <g mask="url(#mask2_2002_1829)">
        <path d="M0.123291 63.9566H37.7817V16.8981H0.123291V63.9566Z" fill="url(#paint0_linear_2002_1829)"/>
      </g>
    </g>
  </g>
  <mask id="mask3_2002_1829" style="mask-type:luminance" maskUnits="userSpaceOnUse" x="2" y="21" width="34" height="42">
    <path d="M2.0528 21.3726H35.7955V62.0856H2.0528V21.3726Z" fill="white"/>
  </mask>
  <g mask="url(#mask3_2002_1829)">
    <mask id="mask4_2002_1829" style="mask-type:luminance" maskUnits="userSpaceOnUse" x="2" y="21" width="34" height="42">
      <path d="M6.15438 21.4414H31.7501C33.9813 21.4414 35.7915 23.624 35.7915 26.3167V57.1939C35.7915 59.8866 33.9813 62.0692 31.7501 62.0692H6.15438C3.92317 62.0692 2.11295 59.8866 2.11295 57.1939V26.3167C2.11295 23.624 3.92317 21.4414 6.15438 21.4414Z" fill="white"/>
    </mask>
    <g mask="url(#mask4_2002_1829)">
      <mask id="mask5_2002_1829" style="mask-type:luminance" maskUnits="userSpaceOnUse" x="2" y="21" width="34" height="42">
        <path d="M6.15438 21.4414H31.7501C33.9813 21.4414 35.7915 23.624 35.7915 26.3167V57.1939C35.7915 59.8866 33.9813 62.0692 31.7501 62.0692H6.15438C3.92317 62.0692 2.11295 59.8866 2.11295 57.1939V26.3167C2.11295 23.624 3.92317 21.4414 6.15438 21.4414Z" fill="white"/>
      </mask>
      <g mask="url(#mask5_2002_1829)">
        <path d="M2.11295 21.4414V62.0692H35.7915V21.4414H2.11295Z" fill="url(#paint1_linear_2002_1829)"/>
      </g>
    </g>
  </g>
  <path d="M13.6804 21.4084H13.2083V33.704H28.0374C32.0528 33.704 35.3184 36.7327 35.3184 40.4553V42.9899C35.3184 46.713 32.0528 49.7417 28.0374 49.7417H9.86751C5.85164 49.7417 2.58652 46.713 2.58652 42.9899V40.4553C2.58652 36.9775 5.39608 34.0904 9.12227 33.7394L9.07466 33.3032C7.17473 33.4817 5.41813 34.3048 4.12762 35.6219C2.82909 36.947 2.11292 38.6635 2.11292 40.4553V42.9899C2.11292 46.9543 5.59103 50.1794 9.86751 50.1794H13.2083V62.0372H13.6804V50.1794H24.223V62.0372H24.6961V50.1794H28.0374C32.3134 50.1794 35.7915 46.9543 35.7915 42.9899V40.4553C35.7915 36.4914 32.3134 33.2663 28.0374 33.2663H24.6961V21.4084H24.223V33.2663H13.6804V21.4084Z" fill="#2B2D2C"/>
  <defs>
    <linearGradient id="paint0_linear_2002_1829" x1="18.9524" y1="63.9566" x2="18.9524" y2="16.8979" gradientUnits="userSpaceOnUse">
      <stop stop-color="#F2F2F2"/>
      <stop offset="0.0625" stop-color="#F2F2F2"/>
      <stop offset="0.125" stop-color="#F1F1F1"/>
      <stop offset="0.1875" stop-color="#F0F0F0"/>
      <stop offset="0.25" stop-color="#EFEFEF"/>
      <stop offset="0.3125" stop-color="#EFEFEF"/>
      <stop offset="0.375" stop-color="#EEEEEE"/>
      <stop offset="0.4375" stop-color="#EDEDED"/>
      <stop offset="0.5" stop-color="#ECECEC"/>
      <stop offset="0.5625" stop-color="#ECECEC"/>
      <stop offset="0.625" stop-color="#EBEBEB"/>
      <stop offset="0.6875" stop-color="#EAEAEA"/>
      <stop offset="0.75" stop-color="#E9E9E9"/>
      <stop offset="0.8125" stop-color="#E9E9E9"/>
      <stop offset="0.875" stop-color="#E8E8E8"/>
      <stop offset="0.9375" stop-color="#E7E7E7"/>
      <stop offset="1" stop-color="#E6E6E6"/>
    </linearGradient>
    <linearGradient id="paint1_linear_2002_1829" x1="2.11311" y1="41.7559" x2="35.7917" y2="41.7559" gradientUnits="userSpaceOnUse">
      <stop stop-color="#F2D052"/>
      <stop offset="0.0625" stop-color="#F2D052"/>
      <stop offset="0.125" stop-color="#F2CF52"/>
      <stop offset="0.15625" stop-color="#F1CE51"/>
      <stop offset="0.1875" stop-color="#F1CE51"/>
      <stop offset="0.21875" stop-color="#F1CD51"/>
      <stop offset="0.25" stop-color="#F1CC50"/>
      <stop offset="0.28125" stop-color="#F0CB50"/>
      <stop offset="0.296875" stop-color="#F0CA50"/>
      <stop offset="0.3125" stop-color="#F0CA50"/>
      <stop offset="0.328125" stop-color="#F0C94F"/>
      <stop offset="0.34375" stop-color="#F0C94F"/>
      <stop offset="0.359375" stop-color="#EFC84F"/>
      <stop offset="0.375" stop-color="#EFC84F"/>
      <stop offset="0.390625" stop-color="#EFC74E"/>
      <stop offset="0.40625" stop-color="#EFC64E"/>
      <stop offset="0.421875" stop-color="#EFC64E"/>
      <stop offset="0.4375" stop-color="#EEC54E"/>
      <stop offset="0.453125" stop-color="#EEC44D"/>
      <stop offset="0.46875" stop-color="#EEC44D"/>
      <stop offset="0.484375" stop-color="#EEC34D"/>
      <stop offset="0.5" stop-color="#EDC24C"/>
      <stop offset="0.515625" stop-color="#EDC14C"/>
      <stop offset="0.53125" stop-color="#EDC14C"/>
      <stop offset="0.546875" stop-color="#EDC04C"/>
      <stop offset="0.5625" stop-color="#ECBF4B"/>
      <stop offset="0.578125" stop-color="#ECBE4B"/>
      <stop offset="0.59375" stop-color="#ECBE4B"/>
      <stop offset="0.609375" stop-color="#ECBD4A"/>
      <stop offset="0.625" stop-color="#EBBC4A"/>
      <stop offset="0.640625" stop-color="#EBBB4A"/>
      <stop offset="0.65625" stop-color="#EBBA49"/>
      <stop offset="0.671875" stop-color="#EAB949"/>
      <stop offset="0.6875" stop-color="#EAB849"/>
      <stop offset="0.703125" stop-color="#EAB748"/>
      <stop offset="0.71875" stop-color="#EAB748"/>
      <stop offset="0.734375" stop-color="#E9B647"/>
      <stop offset="0.75" stop-color="#E9B547"/>
      <stop offset="0.765625" stop-color="#E9B447"/>
      <stop offset="0.78125" stop-color="#E8B346"/>
      <stop offset="0.789062" stop-color="#E8B246"/>
      <stop offset="0.796875" stop-color="#E8B146"/>
      <stop offset="0.804688" stop-color="#E8B146"/>
      <stop offset="0.8125" stop-color="#E7B045"/>
      <stop offset="0.820312" stop-color="#E7B045"/>
      <stop offset="0.828125" stop-color="#E7AF45"/>
      <stop offset="0.835938" stop-color="#E7AF45"/>
      <stop offset="0.84375" stop-color="#E7AE45"/>
      <stop offset="0.851562" stop-color="#E7AE44"/>
      <stop offset="0.859375" stop-color="#E6AD44"/>
      <stop offset="0.867188" stop-color="#E6AD44"/>
      <stop offset="0.875" stop-color="#E6AC44"/>
      <stop offset="0.882812" stop-color="#E6AC43"/>
      <stop offset="0.890625" stop-color="#E6AB43"/>
      <stop offset="0.898438" stop-color="#E6AB43"/>
      <stop offset="0.90625" stop-color="#E5AA43"/>
      <stop offset="0.914062" stop-color="#E5AA43"/>
      <stop offset="0.921875" stop-color="#E5A942"/>
      <stop offset="0.929688" stop-color="#E5A842"/>
      <stop offset="0.9375" stop-color="#E5A842"/>
      <stop offset="0.945312" stop-color="#E4A742"/>
      <stop offset="0.953125" stop-color="#E4A741"/>
      <stop offset="0.960938" stop-color="#E4A641"/>
      <stop offset="0.96875" stop-color="#E4A641"/>
      <stop offset="0.976562" stop-color="#E4A541"/>
      <stop offset="0.984375" stop-color="#E3A441"/>
      <stop offset="0.992188" stop-color="#E3A440"/>
      <stop offset="1" stop-color="#E3A340"/>
    </linearGradient>
  </defs>
</svg>