<svg xmlns="http://www.w3.org/2000/svg" width="24" height="24" viewBox="0 0 24 24" fill="none">
  <path d="M21.3947 3.21899C21.3947 3.21139 22.9999 2.50377 23.0001 3.67505L19.5226 21.2122C19.5226 21.2122 19.0362 22.4295 17.6974 21.844L9.67493 15.6926L9.69446 15.5422C9.74941 15.4928 18.594 7.54056 18.9611 7.19653C19.3173 6.87 19.2107 6.78916 19.2052 6.7854C19.235 6.38055 18.5693 6.77442 18.5509 6.7854L6.75012 14.2795C6.75012 14.2795 6.74979 14.2804 6.75012 14.2815H6.74915L1.83411 12.6301C1.83411 12.6301 1.08038 12.3641 1.00403 11.7786C0.927945 11.1927 1.85657 10.8801 1.85657 10.8801L21.3947 3.21899Z" fill="black"/>
  <path d="M12.7453 18.0481L9.57266 20.9468C9.57266 20.9468 9.32159 21.137 9.0553 21.0153L9.66396 15.6362" fill="black"/>
</svg>