<svg xmlns="http://www.w3.org/2000/svg" width="54" height="30" viewBox="0 0 54 30" fill="none">
  <path d="M43.085 8.68405C40.8628 8.68405 38.8516 9.35444 37.1384 10.509V0H32.396V19.3669C32.396 25.2576 37.1881 30 43.054 30C48.9199 30 53.7678 25.2886 53.7678 19.311C53.7741 13.3395 49.0317 8.68405 43.085 8.68405ZM21.5642 20.7387L17.2253 9.43513H13.9044L9.54066 20.7387L5.1707 9.43513H0L7.63501 29.311H10.9559L15.5369 17.4736L20.1428 29.311H23.4637L31.0739 9.43513H25.928L21.5642 20.7387ZM43.0602 25.2638C39.8448 25.2638 37.1384 22.694 37.1384 19.342C37.1384 15.9901 39.6834 13.4513 43.085 13.4513C46.4867 13.4513 49.0317 16.1018 49.0317 19.342C49.0317 22.5885 46.3253 25.2638 43.0602 25.2638Z" fill="#E313BF"/>
</svg>