<svg xmlns="http://www.w3.org/2000/svg" width="63" height="30" viewBox="0 0 63 30" fill="none">
  <path d="M47.7665 30C56.0665 30 62.7665 23.3 62.7665 15C62.7665 6.7 56.0665 0 47.7665 0C39.4665 0 32.7665 6.7 32.7665 15C32.6665 23.3 39.4665 30 47.7665 30Z" fill="#FED42B"/>
  <path d="M15.6665 30C23.9508 30 30.6665 23.2843 30.6665 15C30.6665 6.71573 23.9508 0 15.6665 0C7.38223 0 0.666504 6.71573 0.666504 15C0.666504 23.2843 7.38223 30 15.6665 30Z" fill="#FC3F1D"/>
  <path d="M17.8666 8.4H16.3666C13.7666 8.4 12.4666 9.7 12.4666 11.7C12.4666 13.9 13.3666 15 15.2666 16.3L16.7666 17.4L12.4666 24.1H8.96655L13.0666 18C10.6666 16.3 9.36655 14.7 9.36655 11.9C9.36655 8.4 11.7666 6 16.3666 6H20.9666V24H17.9666V8.4H17.8666Z" fill="white"/>
  <mask id="mask0_2064_3726" style="mask-type:luminance" maskUnits="userSpaceOnUse" x="32" y="0" width="31" height="30">
    <path d="M47.7665 30C56.0665 30 62.7665 23.3 62.7665 15C62.7665 6.7 56.0665 0 47.7665 0C39.4665 0 32.7665 6.7 32.7665 15C32.6665 23.3 39.4665 30 47.7665 30Z" fill="white"/>
  </mask>
  <g mask="url(#mask0_2064_3726)">
    <path d="M40.3665 8.2001L27.1665 25.5001L30.6665 29.5001L40.4665 16.5001L39.4665 23.6001L44.9665 25.5001L51.6665 14.8001C51.3665 16.8001 50.8665 21.4001 55.2665 22.8001C62.1665 24.9001 68.1665 12.5001 70.9665 6.2001L66.9665 4.1001C63.8665 10.6001 59.0665 17.8001 57.1665 17.3001C55.2665 16.8001 56.9665 10.7001 58.0665 6.8001V6.7001L51.9665 4.6001L44.6665 16.5001L45.6665 10.0001L40.3665 8.2001Z" fill="black"/>
  </g>
</svg>